<svg width="53" height="52" viewBox="0 0 53 52" fill="none" xmlns="http://www.w3.org/2000/svg">
<g clip-path="url(#clip0_24_194)">
<path fill-rule="evenodd" clip-rule="evenodd" d="M11.034 4.33331C8.0669 4.33331 5.87143 6.93024 5.96971 9.7466C6.06401 12.4524 5.9415 15.9566 5.05926 18.8144C4.17439 21.6805 2.67783 23.4962 0.233398 23.7293V26.3609C2.67783 26.5941 4.17439 28.4097 5.05926 31.276C5.9415 34.1336 6.06401 37.638 5.96971 40.3437C5.87143 43.1598 8.06689 45.7569 11.0344 45.7569H41.4367C44.4039 45.7569 46.599 43.1602 46.5006 40.3437C46.4064 37.638 46.5288 34.1336 47.411 31.276C48.2963 28.4097 49.789 26.5941 52.2334 26.3609V23.7293C49.789 23.4962 48.2963 21.6805 47.411 18.8144C46.5288 15.9571 46.4064 12.4524 46.5006 9.7466C46.599 6.93067 44.4039 4.33331 41.4367 4.33331H11.034ZM35.4877 29.8322C35.4877 33.7103 32.595 36.0622 27.7947 36.0622H19.6232C19.3895 36.0622 19.1653 35.9692 19 35.8039C18.8347 35.6386 18.7419 35.4146 18.7419 35.1808V14.9096C18.7419 14.6758 18.8347 14.4517 19 14.2864C19.1653 14.1211 19.3895 14.0282 19.6232 14.0282H27.7481C31.7506 14.0282 34.3775 16.1964 34.3775 19.5252C34.3775 21.8616 32.6106 23.9536 30.359 24.3197V24.4419C33.4239 24.7782 35.4877 26.9004 35.4877 29.8322ZM26.9038 16.8221H22.2443V23.4032H26.1686C29.2022 23.4032 30.875 22.1817 30.875 19.9981C30.875 17.952 29.4366 16.8221 26.9038 16.8221ZM22.2443 26.0147V33.2674H27.0751C30.2335 33.2674 31.9066 31.9999 31.9066 29.6181C31.9066 27.2358 30.1867 26.0143 26.8719 26.0143L22.2443 26.0147Z" fill="black"/>
</g>
<defs>
<clipPath id="clip0_24_194">
<rect width="52" height="52" fill="white" transform="translate(0.233398)"/>
</clipPath>
</defs>
</svg>
