<svg width="25" height="25" viewBox="0 0 25 25" fill="none" xmlns="http://www.w3.org/2000/svg">
<path fill-rule="evenodd" clip-rule="evenodd" d="M12.5 13.5C12.5 11.7741 13.8991 10.375 15.625 10.375C17.3509 10.375 18.75 11.7741 18.75 13.5C18.75 15.2259 17.3509 16.625 15.625 16.625C13.8991 16.625 12.5 15.2259 12.5 13.5Z" fill="black"/>
<path fill-rule="evenodd" clip-rule="evenodd" d="M6.25 19.75C6.25 18.0241 7.64911 16.625 9.375 16.625H12.5V19.75C12.5 21.4759 11.1009 22.875 9.375 22.875C7.64911 22.875 6.25 21.4759 6.25 19.75Z" fill="black"/>
<path fill-rule="evenodd" clip-rule="evenodd" d="M12.5 4.125V10.375H15.625C17.3509 10.375 18.75 8.97586 18.75 7.25C18.75 5.52411 17.3509 4.125 15.625 4.125H12.5Z" fill="black"/>
<path fill-rule="evenodd" clip-rule="evenodd" d="M6.25 7.25C6.25 8.97586 7.64911 10.375 9.375 10.375H12.5V4.125H9.375C7.64911 4.125 6.25 5.52411 6.25 7.25Z" fill="black"/>
<path fill-rule="evenodd" clip-rule="evenodd" d="M6.25 13.5C6.25 15.2259 7.64911 16.625 9.375 16.625H12.5V10.375H9.375C7.64911 10.375 6.25 11.7741 6.25 13.5Z" fill="black"/>
</svg>
