<svg width="136" height="136" viewBox="0 0 136 136" fill="none" xmlns="http://www.w3.org/2000/svg">
<path d="M28.5422 52.0879C28.1614 52.7244 27.3644 52.9937 26.679 53.131C25.8031 53.3106 24.8974 53.3582 24.0107 53.437L23.4952 53.5635C23.3977 53.5936 23.307 53.6427 23.2285 53.7078C23.1499 53.7731 23.085 53.8532 23.0376 53.9435C22.99 54.0338 22.9609 54.1327 22.9516 54.2344C22.9424 54.336 22.9534 54.4385 22.9839 54.5359C23.3028 55.6334 23.7415 56.6923 24.2922 57.6938L23.4762 58.5098C23.245 58.197 23.2341 57.649 22.924 57.702C22.6262 57.4042 22.2726 57.2586 21.9067 57.6571C21.1914 58.4391 21.307 60.0643 22.3583 60.5131L22.123 61.6841C22.0418 62.0934 21.8213 62.4621 21.499 62.7272C21.1766 62.9923 20.7724 63.1374 20.355 63.1379L20.5359 61.7521C19.3119 62.3709 17.9233 61.0326 18.0199 59.9297C18.0824 59.1735 17.9111 58.6513 17.3521 58.1032C17.3154 58.0665 17.5398 57.9305 17.5058 57.8938C17.348 57.4164 17.3263 56.8588 17.4827 56.5433C17.7547 55.9802 18.5557 55.6511 18.1871 55.0364C18.0254 54.7685 17.9074 54.4765 17.8376 54.1714C17.7636 53.767 17.7771 53.3514 17.8773 52.9525C17.9776 52.5537 18.162 52.1809 18.4183 51.8594C18.9623 51.2066 19.8463 51.3821 20.5685 51.1509C21.4484 50.8789 21.8551 49.9364 22.7758 49.6454C23.2341 49.4998 23.6584 49.5665 24.1167 49.6712C24.5043 49.761 24.8879 49.8616 25.2687 49.9813C25.6495 50.101 25.984 50.2002 26.3567 50.0887C26.849 49.9527 27.2284 49.493 27.7656 49.489C28.0337 49.4828 28.296 49.5666 28.5109 49.727C28.908 50.441 28.9107 51.4773 28.5422 52.0879Z" fill="#284551"/>
<path d="M73.8656 47.6416V47.6367" stroke="#CCDDE2" stroke-width="0.286218" stroke-miterlimit="10"/>
<path d="M35.0159 77.0463V77.0414" stroke="black" stroke-width="0.286218" stroke-miterlimit="10"/>
<path d="M23.4394 58.4013C23.2945 58.1508 23.122 57.9171 22.9254 57.7049C22.6275 57.4071 22.2739 57.2616 21.9081 57.6601C21.1927 58.4421 21.3083 60.0673 22.3596 60.5161L22.1243 61.687C22.0431 62.0964 21.8227 62.4649 21.5004 62.73C21.1779 62.9951 20.7737 63.1403 20.3563 63.1409" stroke="black" stroke-width="0.286218" stroke-linecap="round" stroke-linejoin="round"/>
<path d="M19.6981 68.3223C19.758 67.8681 19.9062 66.6753 20.049 65.5384C20.185 64.4844 20.306 63.4698 20.3536 63.1353L20.5359 61.7521" stroke="black" stroke-width="0.286218" stroke-linecap="round" stroke-linejoin="round"/>
<path d="M28.0947 54.6938C28.0947 54.6938 26.358 54.7795 26.0221 56.217" stroke="black" stroke-width="0.286218" stroke-miterlimit="10"/>
<path d="M28.7259 58.4923C29.1992 58.4801 29.8139 58.4107 30.0369 57.9306L28.8401 56.6101C28.5481 56.2865 28.3754 55.8729 28.3505 55.4377C28.3029 54.7074 28.3886 53.5487 27.6896 52.7776" stroke="black" stroke-width="0.286218" stroke-miterlimit="10"/>
<path d="M27.7026 56.6644C27.8985 56.4476 27.9082 56.1373 27.7243 55.9711C27.5404 55.8048 27.2325 55.8458 27.0367 56.0626C26.8407 56.2793 26.8309 56.5897 27.0148 56.7559C27.1987 56.9221 27.5066 56.8812 27.7026 56.6644Z" fill="black"/>
<path d="M27.5849 67.1664L26.6832 62.7953" stroke="black" stroke-width="0.286218" stroke-miterlimit="10"/>
<path d="M50.4423 86.8386L44.631 91.5904C51.6228 102.253 46.331 104.21 46.331 104.21C45.3045 104.406 44.268 104.546 43.2261 104.627C38.1724 104.992 32.9881 103.688 28.8224 100.766C20.3904 94.8504 13.0464 83.0102 16.9632 72.7014C17.2927 71.8295 17.6954 70.9868 18.1668 70.1827C18.573 69.4836 19.0902 68.8553 19.6981 68.3222C20.7622 67.3907 22.0726 66.7862 23.4719 66.5814C24.871 66.3766 26.2997 66.5802 27.5861 67.1676C28.0786 67.3924 28.5444 67.6716 28.9747 67.9999C31.1765 69.6849 33.1785 72.0799 34.9043 74.5932C36.4366 76.866 37.8157 79.2386 39.0319 81.6951C39.3678 82.3656 39.6725 82.9993 39.9417 83.58C42.3829 82.5927 44.4297 80.9158 46.3337 79.1043C44.0313 83.4019 50.4423 86.8386 50.4423 86.8386Z" fill="#112F91"/>
<path d="M46.3759 90.3147C46.2644 90.4004 46.1488 90.4901 46.0332 90.5758" stroke="black" stroke-width="0.286218" stroke-miterlimit="10"/>
<path d="M29.1951 72.25C30.7364 75.2012 32.2778 78.1578 33.8191 81.1199C34.9819 83.3558 36.9471 84.7362 39.7147 83.6767C42.7257 82.5234 45.1547 80.3189 47.4014 78.0722C49.6481 75.8254 51.9248 73.6766 55.1684 73.0973C59.3612 72.3479 63.3284 74.6327 66.1844 77.52C66.4041 77.7402 66.5431 78.0281 66.5789 78.3371C66.6147 78.6461 66.5452 78.9582 66.3816 79.2227C66.2766 79.3919 66.1363 79.5366 65.9706 79.6468C65.8046 79.7569 65.617 79.8301 65.4203 79.8611C65.2235 79.8922 65.0225 79.8806 64.8307 79.827C64.639 79.7734 64.461 79.6791 64.3089 79.5505C62.9557 78.3958 60.7539 76.7258 59.2225 76.704" stroke="black" stroke-width="0.286218" stroke-miterlimit="10"/>
<path d="M55.0447 80.6656C55.5152 80.9798 56.168 81.328 56.712 81.328" stroke="black" stroke-width="0.286218" stroke-miterlimit="10"/>
<path d="M61.0747 77.2767C62.0784 77.7731 62.4442 79.2256 61.7357 80.0933C60.8373 81.2081 59.7116 82.1186 58.4336 82.7643C57.0355 83.462 56.1379 83.0363 54.7616 82.185" stroke="black" stroke-width="0.286218" stroke-miterlimit="10"/>
<path d="M58.7518 78.5783C58.7518 78.5783 60.7402 79.0706 60.6871 81.0005C60.6836 81.0828 60.6689 81.1642 60.6436 81.2425" stroke="black" stroke-width="0.286218" stroke-miterlimit="10"/>
<path d="M57.347 79.7938C57.347 79.7938 60.014 81.5169 58.7451 82.6009" stroke="black" stroke-width="0.286218" stroke-miterlimit="10"/>
<path d="M108.865 86.5476C105.723 95.1823 96.9284 95.4257 95.922 95.4257C96.3436 94.5376 96.4578 92.9777 95.5344 90.2441C96.153 89.3408 96.4786 88.269 96.4672 87.174C96.4558 86.0792 96.1079 85.0145 95.4705 84.1241C95.4827 84.1132 95.4895 84.0983 95.5004 84.0874C95.9402 84.0606 96.3766 83.9946 96.8046 83.8902C98.3224 83.5284 101.314 82.7342 103.689 81.6163C105.299 80.856 107.177 82.0746 107.04 83.8521C107.04 83.8752 107.04 83.897 107.032 83.9228C107.346 83.9227 107.656 83.9983 107.935 84.1435C108.214 84.2888 108.453 84.4992 108.633 84.757C108.813 85.0148 108.928 85.3121 108.969 85.6239C109.009 85.9356 108.974 86.2526 108.865 86.5476Z" fill="#2D6CDF"/>
<path d="M68.5507 106.8C67.4927 108.615 65.8457 110.162 64.2545 111.511C58.6527 116.252 51.3345 118.659 43.9905 118.753C36.622 118.659 29.2767 116.243 23.649 111.545C5.86695 96.6962 9.08063 79.1644 11.957 71.0466C12.0583 70.7659 12.1955 70.4994 12.365 70.2537C12.5899 69.9247 12.8819 69.647 13.2218 69.4389C13.5617 69.2307 13.9417 69.0969 14.337 69.046C15.8466 69.2541 17.2175 70.5067 16.9754 72.446C16.9754 72.5208 16.9455 72.6242 16.9387 72.699C13.0246 83.0078 20.3714 94.8479 28.7979 100.764C32.6209 103.447 37.302 104.766 41.9532 104.681H42.0063C42.4051 104.673 42.8036 104.654 43.2017 104.625C45.8143 104.435 48.3534 103.809 50.868 103.051C53.8192 102.169 56.7378 101.098 59.6863 100.349C60.7226 100.085 61.7616 99.831 62.8061 99.593C63.4089 99.4694 64.0253 99.4268 64.6394 99.4665C68.2611 99.7113 70.8056 102.932 68.5507 106.8Z" fill="#D7E8F0"/>
<path d="M69.4456 106.8C68.3875 108.615 66.7392 110.162 65.148 111.511C59.3231 116.445 51.6377 118.855 43.9864 118.753C36.6179 118.659 29.2725 116.243 23.6448 111.545C5.86694 96.6962 9.08062 79.1644 11.957 71.0466C12.0583 70.7659 12.1955 70.4994 12.365 70.2537C12.5899 69.9247 12.8819 69.647 13.2218 69.4389C13.5617 69.2307 13.9418 69.0969 14.337 69.046C15.8466 69.2541 17.2175 70.5067 16.9754 72.446C16.9754 72.5208 16.9455 72.6242 16.9387 72.699C13.0246 83.0078 20.3713 94.8479 28.7979 100.764C32.6208 103.447 37.302 104.766 41.9532 104.681H42.0062C42.707 104.692 43.4039 104.673 44.0965 104.625C46.7091 104.435 49.2468 103.809 51.7628 103.051C54.7141 102.169 57.6326 101.099 60.5811 100.349C61.6161 100.085 62.6565 99.831 63.6996 99.593C64.0097 99.5296 64.3235 99.4873 64.6393 99.4665C68.7112 99.1931 71.8827 102.619 69.4456 106.8Z" fill="#D7E8F0"/>
<path d="M45.2146 118.728L47.0043 121.26C47.0043 121.26 57.834 121.682 63.7609 126.657C64.8571 127.577 64.2015 129.366 62.7708 129.366C62.4121 129.367 62.0646 129.241 61.7903 129.009C60.3908 127.834 55.0447 124.141 42.9515 124.029C31.1685 123.919 26.6492 127.565 25.3994 128.894C25.2569 129.044 25.0851 129.163 24.8947 129.244C24.7043 129.325 24.4993 129.367 24.2923 129.366H24.0598C22.591 129.366 21.9695 127.511 23.1296 126.61C28.0772 122.763 39.168 121.536 39.168 121.536L41.0611 118.68" fill="#353642"/>
<path d="M93.1421 104.686C93.1421 104.686 96.4592 107.837 95.4242 117.606C95.3487 118.304 95.1062 118.973 94.717 119.556L94.3566 120.1C93.7656 120.985 92.8743 121.627 91.8474 121.906C89.6809 122.498 85.7505 123.869 83.3229 126.467C82.2975 127.567 83.0604 129.359 84.5646 129.359C84.845 129.36 85.1214 129.291 85.3689 129.159C85.6163 129.028 85.8274 128.836 85.9831 128.603C86.9718 127.115 89.9652 123.956 97.1854 124.023C105.329 124.097 108.609 127.336 109.661 128.731C109.806 128.926 109.994 129.084 110.211 129.193C110.428 129.302 110.668 129.359 110.911 129.359C111.215 129.359 111.512 129.269 111.767 129.102C112.021 128.935 112.221 128.697 112.342 128.418C112.463 128.138 112.5 127.83 112.449 127.53C112.397 127.23 112.259 126.952 112.052 126.729C108.876 123.279 104.992 121.992 102.848 121.515C101.772 121.283 100.82 120.656 100.181 119.759C99.6924 119.067 99.4142 118.248 99.3805 117.401C99.2608 114.372 99.1982 107.02 101.25 104.689" fill="#353642"/>
<path d="M50.8953 103.055C56.7283 100.224 63.0591 98.3661 69.2838 96.6171C75.548 94.8573 81.8733 93.3218 88.2177 91.8789C90.7528 91.3036 93.3109 90.7909 95.8337 90.1422" stroke="black" stroke-width="0.286218" stroke-miterlimit="10"/>
<path d="M56.3678 81.2888H56.3718H56.3745" stroke="black" stroke-width="0.286218" stroke-miterlimit="10"/>
<path d="M55.7136 80.9202C55.3478 81.282 54.0422 83.2145 53.7144 83.5613C51.9138 85.491 50.0011 87.313 47.9861 89.0176C47.4788 89.4392 46.9416 89.8744 46.3758 90.3151C46.2643 90.4008 46.1487 90.4905 46.0331 90.5762C42.1979 93.4866 37.1931 96.2882 32.5691 94.493C32.4467 94.4481 32.327 94.3964 32.2087 94.3434C25.1163 91.1678 20.1591 83.2145 19.7266 75.5373C19.7117 75.2871 19.7035 75.0382 19.7008 74.792C19.6627 72.6936 19.9728 70.5951 21.9856 69.488" stroke="black" stroke-width="0.286218" stroke-miterlimit="10"/>
<path d="M16.9742 72.6717L17.0027 72.4487C17.4542 68.8284 12.3135 67.6071 11.0935 71.0465C8.2185 79.163 5.00346 96.6907 22.7895 111.542C34.2693 121.131 52.855 121.198 64.2913 111.511C65.8825 110.163 67.5294 108.614 68.5889 106.798C71.2694 102.207 67.1758 98.5253 62.5586 99.6555" stroke="black" stroke-width="0.286218" stroke-miterlimit="10"/>
<path d="M45.2146 118.728L47.0043 121.26C47.0043 121.26 57.834 121.682 63.7609 126.657C64.8571 127.577 64.2015 129.366 62.7708 129.366C62.4121 129.367 62.0646 129.241 61.7903 129.009C60.3908 127.834 55.0447 124.141 42.9515 124.029C31.1685 123.919 26.6492 127.565 25.3994 128.894C25.2569 129.044 25.0851 129.163 24.8947 129.244C24.7043 129.325 24.4993 129.367 24.2923 129.366H24.0598C22.591 129.366 21.9695 127.511 23.1296 126.61C28.0772 122.763 39.168 121.536 39.168 121.536L41.0611 118.68" stroke="black" stroke-width="0.286218" stroke-miterlimit="10"/>
<path d="M39.1678 81.4779C43.7075 80.2539 45.5775 73.8496 46.331 69.5439" stroke="black" stroke-width="0.286218" stroke-miterlimit="10"/>
<path d="M34.9003 74.5973C36.1614 74.4322 37.3591 73.9464 38.3789 73.1863C39.3987 72.4263 40.2066 71.4175 40.7251 70.2562C40.8337 70.0251 40.8864 69.772 40.8794 69.5169C40.8723 69.2617 40.8055 69.0119 40.6843 68.7874C40.1893 67.8707 39.4508 66.8086 39.6263 65.7097C39.7527 64.9345 40.3906 64.3891 41.1223 64.2137C41.4931 64.1164 41.8837 64.1231 42.2511 64.2327C42.4713 64.2951 42.6748 64.4057 42.847 64.5564C43.0192 64.7072 43.1556 64.8944 43.2466 65.1045C43.4247 65.522 43.2126 65.9354 42.8848 66.2074C42.5571 66.4794 42.1735 66.576 41.7737 66.6848C41.722 66.6998 41.5806 66.7297 41.4242 66.7596" stroke="black" stroke-width="0.286218" stroke-miterlimit="10"/>
<path d="M95.8281 90.1395C95.8281 90.1395 104.777 88.2654 106.458 85.5658C106.773 85.0737 106.969 84.515 107.032 83.9338" stroke="black" stroke-width="0.286218" stroke-miterlimit="10"/>
<path d="M51.794 85.5291C67.4027 83.8712 85.0202 84.116 85.0202 84.116H94.9074C95.5463 84.117 96.1832 84.042 96.8046 83.893C98.3223 83.5312 101.314 82.7384 103.689 81.6191C105.299 80.8588 107.177 82.0774 107.04 83.8563C107.04 83.878 107.04 83.9012 107.032 83.927C107.346 83.9271 107.655 84.0029 107.933 84.1477C108.211 84.2927 108.45 84.5025 108.63 84.7596C108.81 85.0166 108.925 85.3132 108.966 85.6243C109.007 85.9353 108.972 86.2516 108.865 86.5464C105.53 95.7114 95.8281 95.4244 95.8281 95.4244C94.5878 95.4612 93.3502 95.5101 92.1085 95.574C81.17 96.1058 70.3281 97.6412 59.7146 100.352C56.7662 101.101 53.8476 102.17 50.8964 103.054C48.3804 103.814 45.8386 104.436 43.226 104.626C38.1723 104.992 32.9879 103.686 28.8223 100.765C19.698 94.3623 11.8454 81.0125 18.1667 70.176C20.3984 66.3517 25.4522 65.3045 28.9746 68C33.9427 71.8012 37.9111 79.2064 39.9471 83.5748" stroke="black" stroke-width="0.286218" stroke-miterlimit="10"/>
<path d="M108.659 104.686H86.9366" stroke="black" stroke-width="0.286218" stroke-miterlimit="10"/>
<path d="M82.552 100.299C82.5553 99.1357 83.0185 98.0216 83.8405 97.1992C84.6626 96.377 85.7767 95.9133 86.9394 95.9098H108.664C109.827 95.9129 110.941 96.3764 111.764 97.1988C112.586 98.0211 113.049 99.1356 113.053 100.299" stroke="black" stroke-width="0.286218" stroke-miterlimit="10"/>
<path d="M113.48 101.855C113.481 102.227 113.408 102.596 113.266 102.94C113.124 103.284 112.916 103.596 112.652 103.86C112.389 104.123 112.076 104.331 111.732 104.473C111.388 104.615 111.019 104.687 110.647 104.686H84.9429C84.2994 104.625 83.7057 104.314 83.2891 103.82C82.8725 103.326 82.6665 102.688 82.7153 102.044C82.7641 101.399 83.0639 100.8 83.5501 100.374C84.0364 99.9481 84.6703 99.7303 85.3155 99.767H111.02C111.476 99.7663 111.926 99.8761 112.33 100.087C112.735 100.298 113.082 100.604 113.342 100.979C113.433 101.262 113.48 101.557 113.48 101.855Z" fill="#D7E8F0"/>
<path d="M113.48 101.854C113.481 102.227 113.408 102.595 113.266 102.94C113.124 103.284 112.916 103.596 112.652 103.859C112.389 104.123 112.076 104.331 111.732 104.473C111.388 104.615 111.019 104.687 110.647 104.686H84.9428C84.5656 104.694 84.1905 104.627 83.8397 104.488C83.4889 104.35 83.1692 104.142 82.8996 103.879C82.6299 103.615 82.4156 103.3 82.2694 102.952C82.1231 102.604 82.0477 102.231 82.0477 101.854C82.0477 101.476 82.1231 101.103 82.2694 100.755C82.4156 100.407 82.6299 100.092 82.8996 99.8287C83.1692 99.5648 83.4889 99.3576 83.8397 99.219C84.1905 99.0804 84.5656 99.0132 84.9428 99.0215H110.647C111.245 99.0212 111.828 99.2104 112.312 99.562C112.797 99.9135 113.157 100.409 113.342 100.979C113.433 101.262 113.479 101.557 113.48 101.854Z" stroke="black" stroke-width="0.286218" stroke-miterlimit="10"/>
<path d="M46.2821 69.4432L46.2304 69.8798C46.2068 70.0779 46.1114 70.2604 45.9624 70.393C45.8132 70.5256 45.6208 70.5989 45.4212 70.5992H42.5965C42.397 70.5989 42.2046 70.5256 42.0554 70.393C41.9063 70.2604 41.811 70.0779 41.7873 69.8798L41.4228 66.7518C41.5792 66.7219 41.7207 66.6919 41.7724 66.677C42.1722 66.5682 42.5598 66.4757 42.8835 66.1996C43.2072 65.9235 43.4275 65.5196 43.2452 65.0966C43.1543 64.8867 43.0179 64.6994 42.8457 64.5487C42.6735 64.3979 42.4699 64.2873 42.2497 64.2249C41.8823 64.1153 41.4918 64.1086 41.1209 64.2059L41.0352 63.4606C41.0226 63.3467 41.0342 63.2314 41.0691 63.1223C41.1039 63.0131 41.1615 62.9126 41.2377 62.8272C41.314 62.7417 41.4076 62.6733 41.5121 62.6263C41.6166 62.5794 41.7299 62.5551 41.8444 62.5548H46.1788C46.2933 62.5552 46.4063 62.5798 46.5107 62.6268C46.6151 62.6738 46.7083 62.7422 46.7845 62.8276C46.8607 62.913 46.9181 63.0135 46.9529 63.1226C46.9877 63.2317 46.9993 63.3467 46.9866 63.4606L46.886 64.3106" stroke="black" stroke-width="0.286218" stroke-miterlimit="10"/>
<path d="M46.6585 66.2538L46.6548 66.2812" stroke="black" stroke-width="0.286218" stroke-miterlimit="10"/>
<path d="M46.4467 68.048V68.0383" stroke="black" stroke-width="0.286218" stroke-miterlimit="10"/>
<path d="M46.4874 68.0501C46.4753 68.0481 46.4628 68.0481 46.4507 68.0501C46.4336 68.0482 46.4162 68.0482 46.399 68.0501C46.2228 68.0508 46.0532 68.1176 45.9238 68.2372C45.7945 68.3569 45.7148 68.5209 45.7005 68.6966C45.6864 68.8722 45.7387 69.0468 45.8471 69.1858C45.9555 69.3248 46.1122 69.418 46.2861 69.4468C46.3611 69.4618 46.4383 69.4618 46.5133 69.4468C46.8527 69.3927 47.1627 69.2213 47.3891 68.9627C47.6909 68.4663 47.9006 67.9194 48.0079 67.3483C48.0098 67.3426 48.0098 67.3364 48.0079 67.3307C48.0909 66.9099 48.1224 66.4807 48.1017 66.0523M48.1017 66.0523C48.1017 65.8687 48.0786 65.6864 48.0569 65.5083C48.0154 65.2101 47.8791 64.9334 47.6683 64.7186C47.4574 64.5039 47.1832 64.3626 46.8859 64.3155C46.8709 64.3155 46.8533 64.3155 46.8383 64.3074C46.2671 64.2367 45.4661 64.4529 45.3178 65.0975C45.1818 65.6796 45.8129 66.1787 46.331 66.2236C46.331 66.2236 46.467 66.2413 46.6588 66.2535C47.0423 66.2794 47.6801 66.2753 48.1017 66.0523ZM48.1017 66.0523C48.1638 66.0202 48.2221 65.9814 48.2758 65.9367" stroke="black" stroke-width="0.286218" stroke-miterlimit="10"/>
<path d="M47.083 66.2852H46.9892H46.2643H45.9447C45.7286 66.2859 45.5211 66.3693 45.3646 66.5183C45.2079 66.6672 45.1143 66.8704 45.1029 67.0863C45.0923 67.296 45.1599 67.502 45.2926 67.6648C45.4252 67.8276 45.6134 67.9354 45.821 67.9675C46.7594 68.1185 47.831 68.1498 48.0146 67.3093" stroke="black" stroke-width="0.286218" stroke-miterlimit="10"/>
<path d="M93.1421 104.686C93.1421 104.686 96.4592 107.837 95.4242 117.606C95.3487 118.304 95.1062 118.973 94.717 119.556L94.3566 120.1C93.7656 120.985 92.8743 121.627 91.8474 121.906C89.6809 122.498 85.7505 123.869 83.3229 126.467C82.2975 127.567 83.0604 129.359 84.5646 129.359C84.845 129.36 85.1214 129.291 85.3689 129.159C85.6163 129.028 85.8274 128.836 85.9831 128.603C86.9718 127.115 89.9652 123.956 97.1854 124.023C105.329 124.097 108.609 127.336 109.661 128.731C109.806 128.926 109.994 129.084 110.211 129.193C110.428 129.302 110.668 129.359 110.911 129.359C111.215 129.359 111.512 129.269 111.767 129.102C112.021 128.935 112.221 128.697 112.342 128.418C112.463 128.138 112.5 127.83 112.449 127.53C112.397 127.23 112.259 126.952 112.052 126.729C108.876 123.279 104.992 121.992 102.848 121.515C101.772 121.283 100.82 120.656 100.181 119.759C99.6924 119.067 99.4142 118.248 99.3805 117.401C99.2608 114.372 99.1982 107.02 101.25 104.689" stroke="black" stroke-width="0.286218" stroke-miterlimit="10"/>
<path d="M86.247 81.8528V82.0731C86.247 83.5814 85.0312 83.8411 83.9813 83.867L63.6615 84.3402C62.7707 84.362 62.0214 83.5841 62.0023 82.6103V82.5695C62.0023 81.6175 62.7041 80.8219 63.5826 80.8015C63.5826 80.8015 74.9509 80.4805 83.7528 80.2385C83.9214 80.7716 84.3294 81.1823 84.8408 81.5046C85.2644 81.758 85.754 81.8792 86.247 81.8528Z" stroke="black" stroke-width="0.286218" stroke-miterlimit="10"/>
<path d="M97.048 60.3511C97.0491 60.5993 96.9923 60.8441 96.8821 61.0665L87.7946 79.6958C87.688 79.912 87.5354 80.1024 87.3474 80.2535C87.1595 80.4045 86.9408 80.5126 86.7066 80.5702C86.3314 80.6664 85.9341 80.6259 85.586 80.456C85.3069 80.3186 85.072 80.1054 84.9083 79.8409C84.7445 79.5764 84.6584 79.2712 84.6598 78.96C84.6605 78.8836 84.6659 78.8073 84.6761 78.7315C84.7003 78.5629 84.7508 78.3991 84.8257 78.246L93.9119 59.614C94.076 59.2797 94.3486 59.0107 94.685 58.8511C95.0215 58.6915 95.4022 58.6505 95.765 58.7349C96.1279 58.8192 96.4513 59.024 96.6829 59.3158C96.9144 59.6076 97.0402 59.9691 97.0399 60.3416L97.048 60.3511Z" stroke="black" stroke-width="0.286218" stroke-miterlimit="10"/>
<path d="M23.4777 58.5126C23.4668 58.4745 23.4518 58.4378 23.4396 58.4011C23.4274 58.3643 23.4097 58.3222 23.3988 58.2814" stroke="black" stroke-width="0.286218" stroke-linecap="round" stroke-linejoin="round"/>
<path d="M23.4777 58.514L23.7565 58.2338L24.2896 57.6939" stroke="black" stroke-width="0.286218" stroke-linecap="round" stroke-linejoin="round"/>
<path d="M26.6151 59.2514C26.6151 59.2514 26.9728 60.319 28.3396 60.3911" stroke="black" stroke-width="0.286218" stroke-miterlimit="10"/>
<path d="M20.5359 61.7521C19.3119 62.3709 17.9234 61.0326 18.0199 59.9297C18.0825 59.1735 17.9111 58.6514 17.3522 58.1032C17.3155 58.0665 17.2815 58.0284 17.2488 57.9917C17.036 57.7602 16.8977 57.4701 16.8516 57.1589C16.8055 56.8479 16.8539 56.5301 16.9904 56.2468C17.2447 55.6552 17.7928 55.3084 17.412 54.6705C17.2449 54.3947 17.1229 54.094 17.0503 53.7797C16.9742 53.363 16.9885 52.9349 17.092 52.5241C17.1955 52.1133 17.3858 51.7295 17.65 51.3984C18.2103 50.7184 19.1229 50.9061 19.8723 50.6681C20.7739 50.3811 21.1955 49.4114 22.1421 49.1136C22.6154 48.9653 23.0547 49.032 23.5279 49.1394C23.9264 49.2333 24.3263 49.338 24.7139 49.4604C25.1015 49.5828 25.4551 49.6875 25.8427 49.5719C26.3499 49.4237 26.7403 48.9572 27.2924 48.9531C27.8446 48.949 28.2689 49.2741 28.5164 49.7283C28.9081 50.4409 28.9108 51.4773 28.5423 52.092C28.1615 52.7285 27.3645 52.9977 26.6791 53.1351C25.8032 53.3146 24.8975 53.3622 24.0107 53.4411L23.4953 53.5676C23.2992 53.6285 23.1353 53.7645 23.0394 53.9461C22.9435 54.1276 22.9235 54.3398 22.9839 54.5359C23.3029 55.6334 23.7416 56.6925 24.2923 57.6938" stroke="black" stroke-width="0.286218" stroke-miterlimit="10"/>
<path d="M24.2894 61.9083C24.2894 61.9083 26.9877 63.8844 28.5258 62.795C30.064 61.7057 29.1949 58.5124 29.1949 58.5124" stroke="black" stroke-width="0.286218" stroke-linecap="round" stroke-linejoin="round"/>
<path d="M43.3554 61.1906C43.3554 61.1906 42.2089 60.4154 42.9379 59.6238C43.6668 58.8323 42.6958 57.7878 42.6958 57.7878" stroke="black" stroke-width="0.286218" stroke-miterlimit="10"/>
<path d="M44.4135 61.325C44.4135 61.325 45.1723 60.8123 44.6855 60.2874C44.1986 59.7624 44.8473 59.0634 44.8473 59.0634" stroke="black" stroke-width="0.286218" stroke-miterlimit="10"/>
<path d="M49.6426 30.7781V32.2387" stroke="#CCDDE2" stroke-width="0.286218" stroke-miterlimit="10"/>
<path d="M57.853 38.9885H56.4685" stroke="#CCDDE2" stroke-width="0.286218" stroke-miterlimit="10"/>
<path d="M49.6426 47.2004V45.7805" stroke="#CCDDE2" stroke-width="0.286218" stroke-miterlimit="10"/>
<path d="M41.4309 38.9885H42.6794" stroke="#CCDDE2" stroke-width="0.286218" stroke-miterlimit="10"/>
<g clip-path="url(#clip0_107_504)">
<path d="M81.6028 57.7704L75.6585 54.9988C75.4998 54.9251 75.3129 54.9117 75.1351 54.9764C74.9574 55.0411 74.8228 55.1715 74.7486 55.33L74.175 56.5632L75.7406 57.2933C75.8045 57.241 75.8834 57.1957 75.9712 57.1637C76.3936 57.01 76.8602 57.2276 77.0139 57.6499C77.0465 57.7395 77.0623 57.8306 77.0631 57.9207L77.0628 57.9148L78.5711 58.6187C78.6354 58.5655 78.7153 58.519 78.8042 58.4867C79.2262 58.3331 79.6929 58.5507 79.8465 58.9727C80 59.3947 79.7824 59.8614 79.3604 60.015C78.9384 60.1686 78.4718 59.951 78.3182 59.5289C78.2803 59.4248 78.2652 59.318 78.2698 59.2138L78.2696 59.2195L76.8598 58.5665L77.8475 61.2802C78.1484 61.3158 78.4141 61.5123 78.5228 61.8112C78.6767 62.2339 78.4587 62.7014 78.036 62.8553C77.6133 63.0091 77.1458 62.7911 76.9919 62.3684C76.9151 62.1574 76.9309 61.9357 77.0186 61.747C77.0633 61.6512 77.1261 61.5639 77.2044 61.4902L77.2087 61.4863L76.2113 58.746C75.8882 58.7302 75.596 58.5279 75.4805 58.2107C75.4418 58.1042 75.4266 57.9952 75.4323 57.8887L75.4321 57.8944L73.8918 57.1717L71.9902 61.2461C71.9169 61.405 71.9042 61.5917 71.9689 61.7694C72.0336 61.9472 72.1636 62.0819 72.3219 62.1565L78.2663 64.9273C78.4248 65.0015 78.6117 65.0149 78.7894 64.9502C78.9672 64.8855 79.1014 64.7552 79.1755 64.5964L81.9345 58.6797C82.0087 58.5212 82.0223 58.3338 81.9577 58.1564C81.8931 57.979 81.7623 57.8442 81.6035 57.7705L81.6028 57.7704Z" fill="#F1502F"/>
</g>
<g clip-path="url(#clip1_107_504)">
<path d="M70.8947 47.1024C70.8791 47.108 70.8609 47.1146 70.8432 47.1211C70.1288 47.3811 69.4603 47.7123 68.8439 48.1035L68.9035 48.0683C68.3125 48.4357 67.8187 48.8405 67.3853 49.2958L67.4203 49.2619C67.0503 49.6413 66.7757 50.0689 66.5915 50.5334L66.5897 50.5381C66.4371 50.9072 66.4131 51.3326 66.5522 51.7398L66.5528 51.7415C66.7089 52.1441 67 52.4537 67.3549 52.6391L67.3535 52.6381C67.7977 52.878 68.2828 53.029 68.7854 53.0803L68.8101 53.0819C69.386 53.1481 70.0247 53.1413 70.6634 53.0515L70.7135 53.0428C71.3689 52.9576 72.0939 52.7816 72.8083 52.5216L72.8629 52.5017L72.8602 52.5027L72.9117 52.484C73.6261 52.224 74.2945 51.8927 74.911 51.5015L74.8514 51.5368C75.4424 51.1694 75.9362 50.7645 76.3696 50.3093L76.3346 50.3431C76.7046 49.9637 76.9792 49.5362 77.1634 49.0716L77.1652 49.0669C77.3178 48.6978 77.3418 48.2725 77.2027 47.8653L77.202 47.8635C77.0463 47.4604 76.7544 47.1501 76.3989 46.9644L76.4003 46.9654C75.9562 46.7255 75.471 46.5744 74.9684 46.5232L74.9437 46.5216C74.3678 46.4553 73.7291 46.4622 73.0904 46.5519L73.0403 46.5606C72.3849 46.6459 71.6599 46.8218 70.9455 47.0818C70.9273 47.0885 70.9091 47.0951 70.8909 47.1017L70.8936 47.1007L70.8947 47.1024ZM70.6834 50.8296C70.6445 50.9036 70.5948 50.9729 70.5359 51.0346L70.5318 51.0386C70.4802 51.0915 70.4163 51.1464 70.3468 51.1958L70.3383 51.2015C70.272 51.2568 70.1897 51.3053 70.0974 51.3389C70.0938 51.3402 70.0903 51.3415 70.0867 51.3428L69.2121 51.6611L69.3871 52.5839L68.745 52.8176L68.235 49.6488L69.4655 49.201C69.4735 49.1981 69.4831 49.1941 69.4928 49.1905C69.6526 49.1324 69.8163 49.1045 69.977 49.1042L69.9666 49.1045C70.1149 49.1048 70.2534 49.1388 70.3775 49.2007L70.3781 49.201C70.4917 49.2717 70.5908 49.3713 70.6626 49.4939L70.6652 49.4985C70.6999 49.5592 70.7337 49.6314 70.7615 49.7077C70.7931 49.7947 70.8156 49.8825 70.8296 49.9708L70.8279 49.9619C70.8408 50.0472 70.8452 50.124 70.8432 50.2001L70.8432 50.1905C70.8416 50.2652 70.8368 50.3367 70.8289 50.4053C70.814 50.4764 70.7952 50.5491 70.7726 50.6233C70.7508 50.696 70.7225 50.7631 70.6873 50.8267L70.6863 50.828L70.6834 50.8296ZM72.6298 50.4172L72.4248 49.0737C72.4181 49.0223 72.4046 48.9659 72.3843 48.91C72.3801 48.8985 72.3754 48.8871 72.3708 48.8757L72.3714 48.8775C72.3534 48.8293 72.3188 48.7921 72.2765 48.7698C72.2362 48.7544 72.1923 48.7472 72.1479 48.7493L72.1455 48.7497C72.0836 48.7521 72.0161 48.7656 71.95 48.7897C71.9425 48.7924 71.9349 48.7952 71.9275 48.7983L71.9284 48.798L71.4288 48.9799L71.7046 50.7539L71.0732 50.9837L70.5946 47.9016L71.226 47.6717L71.3592 48.5112L71.9272 48.3045C71.937 48.3009 71.9479 48.2965 71.9594 48.2923C72.1063 48.2388 72.2558 48.205 72.4048 48.189L72.3918 48.1907C72.5112 48.1748 72.6264 48.1917 72.7299 48.2345L72.7293 48.2342C72.8184 48.2636 72.8959 48.3233 72.9455 48.4057L72.9467 48.4078C72.9673 48.445 72.9873 48.489 73.0041 48.5351C73.0316 48.6106 73.0489 48.6872 73.0561 48.7635L73.0552 48.7568L73.2774 50.1805L72.6298 50.4172ZM75.7835 48.1718C75.795 48.2586 75.8001 48.3306 75.8014 48.403L75.8003 48.3878C75.8021 48.4671 75.7951 48.539 75.7798 48.6088L75.7807 48.6045C75.7751 48.6844 75.7602 48.7567 75.7366 48.8256L75.7373 48.8233C75.7135 48.8933 75.6843 48.9582 75.6497 49.0205L75.6489 49.0223C75.61 49.0963 75.5603 49.1656 75.5014 49.2273L75.4973 49.2313C75.4457 49.2842 75.3818 49.3392 75.3123 49.3886L75.3038 49.3942C75.2375 49.4495 75.1552 49.498 75.0629 49.5316C75.0593 49.5329 75.0558 49.5342 75.0522 49.5355L74.1776 49.8538L74.3418 50.7785L73.7103 51.0083L73.2003 47.8396L74.4201 47.3956C74.4297 47.3916 74.4408 47.3876 74.4523 47.3834C74.6143 47.3244 74.7802 47.2957 74.9433 47.2951L74.9325 47.2956C75.0766 47.2954 75.2111 47.3308 75.3299 47.3962L75.3311 47.3967C75.4513 47.4646 75.5556 47.5648 75.6279 47.6902L75.6304 47.6944C75.6613 47.7489 75.6913 47.8134 75.7162 47.8817C75.7519 47.9798 75.7749 48.079 75.7864 48.1783L75.7851 48.1692L75.7835 48.1718ZM74.3356 47.9214L73.9016 48.0793L74.1179 49.3821L74.4978 49.2438L74.5209 49.2354C74.6318 49.195 74.7372 49.1451 74.8359 49.0876L74.8255 49.0934C74.9102 49.0445 74.9791 48.9827 75.0335 48.9111L75.0313 48.9134C75.072 48.8373 75.0998 48.7563 75.1138 48.6719L75.1142 48.6677C75.1296 48.5676 75.1284 48.458 75.1084 48.3492L75.1073 48.3435C75.1003 48.2813 75.0837 48.2124 75.059 48.1445C75.0471 48.1117 75.0335 48.0799 75.0185 48.0497L75.0204 48.0536C74.9887 47.9857 74.9398 47.9316 74.8813 47.8936L74.882 47.8944C74.8131 47.8652 74.7379 47.8503 74.6613 47.8526L74.6574 47.853C74.5649 47.8555 74.4647 47.8744 74.3662 47.9102C74.356 47.914 74.3458 47.9177 74.3362 47.9217L74.3375 47.9212L74.3356 47.9214ZM69.3701 49.7287L68.9361 49.8866L69.1516 51.1897L69.5323 51.0511L69.5554 51.0427C69.6663 51.0023 69.7718 50.9524 69.8704 50.8949L69.86 50.9007C69.9447 50.8517 70.0137 50.79 70.068 50.7184L70.0658 50.7207C70.1065 50.6446 70.1343 50.5636 70.1483 50.4791L70.1488 50.4749C70.1641 50.3749 70.1629 50.2653 70.1429 50.1565L70.1418 50.1508C70.1348 50.0886 70.1182 50.0197 70.0935 49.9518C70.0816 49.919 70.068 49.8872 70.053 49.857L70.0549 49.8608C70.0232 49.793 69.9743 49.7389 69.9158 49.7009L69.9165 49.7016C69.8476 49.6725 69.7724 49.6576 69.6958 49.6599L69.6919 49.6603C69.5994 49.6628 69.4992 49.6817 69.4007 49.7175C69.3905 49.7213 69.3803 49.725 69.3707 49.729L69.372 49.7285L69.3701 49.7287Z" fill="#8993BE"/>
</g>
<g clip-path="url(#clip2_107_504)">
<path d="M96.3911 35.8301L93.4733 40.881L94.5255 41.3797L96.7667 37.4992L97.7512 38.1981L96.2818 40.7432L97.321 41.2205L98.689 38.8511L99.9585 39.771L99.6229 41.0642L98.6584 42.018L97.808 41.6231L97.2303 42.6236L98.7719 43.3656L100.634 41.6479L101.236 39.25L96.3912 35.8306L96.3911 35.8301ZM90.9177 41.4037L95.5647 33.3549L103.407 38.8587L102.435 42.6991L99.605 45.4423L90.9177 41.4037Z" fill="#2965F1"/>
</g>
<g clip-path="url(#clip3_107_504)">
<path d="M90.2619 39.361L81.5336 43.415L78.671 40.6182L77.6936 36.7639L85.5686 31.2319L90.2619 39.361ZM87.6918 38.828L84.7451 33.7242L81.8187 35.7756L83.8591 39.3095L82.4693 39.941L81.5058 38.9815L81.159 37.6729L81.9234 37.1315L81.3404 36.1218L79.8093 37.1751L80.4386 39.5984L80.4516 39.621L80.4574 39.6176L82.226 41.3609L85.5334 39.8362L83.3864 36.1175L84.3814 35.4276L86.6281 39.3189L87.6918 38.828Z" fill="#E34C26"/>
</g>
<g clip-path="url(#clip4_107_504)">
<path fill-rule="evenodd" clip-rule="evenodd" d="M85.7102 50.7034C85.2149 51.1191 85.2121 51.8603 85.6231 52.3167C86.0179 52.7553 86.4884 53.3575 86.7414 53.9582C86.9952 54.5607 86.9997 55.0735 86.6243 55.4549L86.9929 55.8943C87.4337 55.5907 87.9379 55.6842 88.4872 56.0388C89.0349 56.3923 89.5463 56.9602 89.9096 57.4252C90.2877 57.9091 91.0181 58.0351 91.5135 57.6194L96.5894 53.3602C97.0849 52.9445 97.0875 52.2035 96.6766 51.747C96.2818 51.3085 95.8113 50.7062 95.5582 50.1055C95.3045 49.5029 95.2993 48.9907 95.6748 48.6093L95.3061 48.17C94.8653 48.4735 94.3617 48.3794 93.8124 48.025C93.2648 47.6715 92.7534 47.1035 92.3901 46.6386C92.012 46.1546 91.2816 46.0285 90.7862 46.4442L85.7102 50.7034ZM93.3652 51.5349C93.9085 52.1823 93.7551 52.9803 92.9536 53.6528L91.5893 54.7975C91.5503 54.8303 91.4998 54.8462 91.4491 54.8417C91.3983 54.8373 91.3514 54.8129 91.3187 54.7739L88.4788 51.3894C88.4461 51.3504 88.4302 51.2999 88.4346 51.2492C88.439 51.1984 88.4635 51.1515 88.5025 51.1188L89.859 49.9805C90.5272 49.4198 91.2696 49.4138 91.7359 49.9696C92.0632 50.3597 92.0613 50.9564 91.7367 51.333L91.7538 51.3534C92.3126 50.9802 92.9545 51.0454 93.3652 51.5349ZM90.1094 50.5653L89.3315 51.218L90.2535 52.3168L90.9087 51.767C91.4152 51.3421 91.5233 50.9038 91.2174 50.5392C90.9308 50.1976 90.5323 50.2105 90.1094 50.5653ZM90.6193 52.7528L91.6354 53.9637L92.442 53.287C92.9693 52.8445 93.071 52.3985 92.7374 52.0008C92.4036 51.6031 91.9453 51.6401 91.3919 52.1045L90.6193 52.7528Z" fill="#712CF9"/>
</g>
<path d="M11.7612 129.359H129.2" stroke="black" stroke-width="0.286218" stroke-miterlimit="10"/>
<defs>
<clipPath id="clip0_107_504">
<rect width="11.3333" height="11.3333" fill="white" transform="translate(69.7 56.5762) rotate(-20)"/>
</clipPath>
<clipPath id="clip1_107_504">
<rect width="11.3333" height="11.3333" fill="white" transform="translate(64.6 46.3762) rotate(-20)"/>
</clipPath>
<clipPath id="clip2_107_504">
<rect width="11.3333" height="11.3333" fill="white" transform="translate(90.1 42.109) rotate(-60)"/>
</clipPath>
<clipPath id="clip3_107_504">
<rect width="11.3333" height="11.3333" fill="white" transform="translate(85.3706 30.2223) rotate(60)"/>
</clipPath>
<clipPath id="clip4_107_504">
<rect width="11.3333" height="11.3333" fill="white" transform="translate(83.2999 51.493) rotate(-40)"/>
</clipPath>
</defs>
</svg>
