<svg width="53" height="52" viewBox="0 0 53 52" fill="none" xmlns="http://www.w3.org/2000/svg">
<path d="M50.179 23.8273L28.8996 2.54959C28.3308 1.98247 27.546 1.63147 26.6782 1.63147C25.8105 1.63147 25.0256 1.98247 24.4568 2.54959L20.0482 6.96635L25.6528 12.571C26.0103 12.4458 26.4215 12.3743 26.8505 12.3743C28.9126 12.3743 30.5831 14.0448 30.5831 16.107C30.5831 16.5441 30.5083 16.9617 30.3702 17.3517L30.3783 17.3257L35.7766 22.7272C36.1373 22.5988 36.555 22.5241 36.9888 22.5241C39.0493 22.5241 40.7198 24.1946 40.7198 26.2551C40.7198 28.3156 39.0493 29.9861 36.9888 29.9861C34.9283 29.9861 33.2578 28.3156 33.2578 26.2551C33.2578 25.7465 33.3602 25.2622 33.5438 24.8202L33.5341 24.8446L28.4803 19.8168V33.0671C29.7218 33.6927 30.5587 34.957 30.5587 36.4162C30.5587 38.48 28.885 40.1537 26.8212 40.1537C24.7575 40.1537 23.0837 38.48 23.0837 36.4162C23.0837 35.386 23.4997 34.4548 24.1741 33.7788C24.517 33.436 24.9248 33.1581 25.3782 32.9631L25.4026 32.9533V19.5731C24.0343 18.9978 23.0918 17.667 23.0918 16.1183C23.0918 15.5983 23.1975 15.1043 23.3892 14.6542L23.3795 14.6786L17.8723 9.14547L3.27983 23.7282C2.71433 24.2986 2.36658 25.0835 2.36658 25.9512C2.36658 26.819 2.71595 27.6038 3.28145 28.1742L24.5625 49.4487C25.1296 50.0175 25.9145 50.3685 26.7822 50.3685C27.65 50.3685 28.4332 50.0175 29.002 49.4487L50.1822 28.2685C50.751 27.7013 51.1036 26.9148 51.1036 26.0487C51.1036 25.1826 50.751 24.3961 50.1822 23.829L50.179 23.8273Z" fill="black"/>
</svg>
