<svg width="56" height="55" viewBox="0 0 56 55" fill="none" xmlns="http://www.w3.org/2000/svg">
<g clip-path="url(#clip0_24_159)">
<path d="M27.9201 4.58354C22.4629 4.56295 17.1774 6.49055 13.0146 10.0195C8.85188 13.5485 6.08512 18.4472 5.21215 23.8342C4.33917 29.2212 5.41729 34.743 8.25253 39.406C11.0878 44.069 15.494 47.5671 20.6785 49.271C21.8243 49.4544 22.191 48.744 22.191 48.1252V44.2523C15.8431 45.6273 14.491 41.2502 14.491 41.2502C14.063 39.8269 13.1352 38.6061 11.8785 37.8127C9.79306 36.3919 12.0389 36.4377 12.0389 36.4377C12.7582 36.5308 13.4473 36.7852 14.0544 37.1821C14.6616 37.5789 15.1712 38.1078 15.5451 38.7294C16.1817 39.8613 17.2394 40.6961 18.4882 41.0523C19.7371 41.4085 21.076 41.2572 22.2139 40.6315C22.3183 39.4697 22.8296 38.3822 23.6576 37.5606C18.7535 37.0565 13.2993 35.0856 13.2993 26.3544C13.233 24.066 14.0542 21.8407 15.591 20.144C14.8933 18.1718 14.9752 16.0077 15.8201 14.094C15.8201 14.094 17.7451 13.4752 22.1222 16.3856C25.8751 15.3768 29.8277 15.3768 33.5806 16.3856C37.9576 13.4294 39.8826 14.094 39.8826 14.094C40.7276 16.0077 40.8095 18.1718 40.1118 20.144C41.6486 21.8407 42.4698 24.066 42.4035 26.3544C42.4035 35.1085 37.041 37.0335 31.9306 37.6065C32.4809 38.1597 32.9068 38.8241 33.1795 39.5553C33.4522 40.2865 33.5655 41.0675 33.5118 41.846V48.1252C33.5118 48.744 33.8785 49.4773 35.0472 49.271C40.2222 47.5701 44.6221 44.0814 47.458 39.4304C50.2938 34.7794 51.3802 29.2703 50.5222 23.8909C49.6643 18.5115 46.9181 13.6136 42.7762 10.0755C38.6343 6.53735 33.3675 4.59033 27.9201 4.58354Z" fill="black"/>
</g>
<defs>
<clipPath id="clip0_24_159">
<rect width="55" height="55" fill="white" transform="translate(0.420044)"/>
</clipPath>
</defs>
</svg>
