<svg width="25" height="25" viewBox="0 0 25 25" fill="none" xmlns="http://www.w3.org/2000/svg">
<path d="M17.2277 6.65857L12.5503 10.3089L7.76596 6.65857V6.65955L7.77174 6.66449V11.776L12.4964 15.5052L17.2277 11.9199V6.65857Z" fill="#EA4335"/>
<path d="M18.4555 5.77061L17.2272 6.65853V11.9199L21.0924 8.95234V7.16464C21.0924 7.16464 20.6233 4.61139 18.4555 5.77061Z" fill="#FBBC05"/>
<path d="M17.2272 11.9199V18.7441H20.1897C20.1897 18.7441 21.0327 18.6573 21.0934 17.6963V8.95233L17.2272 11.9199Z" fill="#34A853"/>
<path d="M7.77196 18.7501V11.7759L7.76596 11.771L7.77196 18.7501Z" fill="#C5221F"/>
<path d="M7.76573 6.65942L6.54411 5.77644C4.3764 4.61721 3.90625 7.16949 3.90625 7.16949V8.95713L7.76573 11.7709V6.65942Z" fill="#C5221F"/>
<path d="M7.76596 6.65967V11.7711L7.77196 11.7761V6.66461L7.76596 6.65967Z" fill="#C5221F"/>
<path d="M3.90625 8.95844V17.7024C3.96598 18.6644 4.80995 18.7502 4.80995 18.7502H7.77248L7.76573 11.7712L3.90625 8.95844Z" fill="#4285F4"/>
</svg>
