<svg width="63" height="62" viewBox="0 0 63 62" fill="none" xmlns="http://www.w3.org/2000/svg">
<path d="M43.0384 16.5131L31.4384 25.5659L19.5732 16.5131V16.5155L19.5876 16.5277V29.2042L31.3047 38.4526L43.0384 29.5613V16.5131Z" fill="black"/>
<path d="M46.0833 14.3112L43.037 16.5133V29.5615L52.6228 22.2019V17.7684C52.6228 17.7684 51.4593 11.4364 46.0833 14.3112Z" fill="black"/>
<path d="M43.037 29.5615V46.4854H50.384C50.384 46.4854 52.4747 46.2701 52.6251 43.887V22.2019L43.037 29.5615Z" fill="black"/>
<path d="M19.5881 46.5002V29.2043L19.5732 29.1921L19.5881 46.5002Z" fill="black"/>
<path d="M19.5726 16.5153L16.543 14.3255C11.1671 11.4506 10.0011 17.7803 10.0011 17.7803V22.2136L19.5726 29.1917V16.5153Z" fill="black"/>
<path d="M19.5732 16.516V29.1925L19.5881 29.2047V16.5282L19.5732 16.516Z" fill="black"/>
<path d="M10.0011 22.2168V43.9019C10.1492 46.2875 12.2423 46.5005 12.2423 46.5005H19.5893L19.5726 29.1924L10.0011 22.2168Z" fill="black"/>
</svg>
