<svg width="53" height="52" viewBox="0 0 53 52" fill="none" xmlns="http://www.w3.org/2000/svg">
<g clip-path="url(#clip0_24_198)">
<rect width="52" height="52" transform="translate(0.669189)" fill="white"/>
<path fill-rule="evenodd" clip-rule="evenodd" d="M0.669189 0H52.6692V52H0.669189V0ZM40.4204 43.5925C38.0102 43.5925 36.6473 42.3354 35.6 40.6252L31.6289 42.9323C33.0635 45.7665 35.9954 47.9291 40.5335 47.9291C45.1745 47.9291 48.6305 45.5191 48.6305 41.1197C48.6305 37.039 46.2864 35.2237 42.1346 33.4434L40.9131 32.9201C38.8166 32.0123 37.9086 31.4188 37.9086 29.9529C37.9086 28.7668 38.8157 27.8588 40.247 27.8588C41.6502 27.8588 42.5539 28.4505 43.3917 29.9529L47.1968 27.5097C45.5872 24.6786 43.3538 23.5972 40.247 23.5972C35.8832 23.5972 33.0908 26.3872 33.0908 30.0519C33.0908 34.0303 35.4331 35.9123 38.9594 37.4144L40.181 37.9385C42.4096 38.9133 43.7384 39.5068 43.7384 41.1823C43.7384 42.5806 42.4449 43.5925 40.4204 43.5925ZM21.4832 43.5619C19.8043 43.5619 19.1061 42.4105 18.3384 41.0486L14.3609 43.4568C15.5131 45.8954 17.7788 47.9202 21.6912 47.9202C26.0211 47.9202 28.9877 45.6172 28.9877 40.5576V23.8762H24.1015V40.4915C24.1015 42.9338 23.0886 43.5619 21.4832 43.5619Z" fill="black"/>
</g>
<defs>
<clipPath id="clip0_24_198">
<rect width="52" height="52" fill="white" transform="translate(0.669189)"/>
</clipPath>
</defs>
</svg>
