<svg width="25" height="25" viewBox="0 0 25 25" fill="none" xmlns="http://www.w3.org/2000/svg">
<g clip-path="url(#clip0_328_763)">
<path fill-rule="evenodd" clip-rule="evenodd" d="M24.9003 11.6813C24.7213 11.4198 22.4345 7.21206 22.0479 6.51671C21.6329 5.82135 21.4539 5.9521 21.1853 5.99668C20.9188 6.04125 18.0359 6.77821 17.7083 6.81981C17.3808 6.90599 17.1733 7.08131 17.3808 7.51516C17.5598 7.90444 19.46 11.8121 19.8771 12.7244L12.3006 15.3721L6.29883 0.656728C6.06079 0.1367 6.00179 -0.038624 5.46672 0.0059499C4.93164 0.0505238 0.742598 0.570552 0.445561 0.570552C0.146488 0.615126 -0.179033 0.787478 0.118005 1.83051C0.415043 2.87056 5.16968 17.7998 5.28768 18.2337C5.40568 18.6675 5.76376 19.3629 6.56535 19.1014C7.39746 18.7983 10.2498 17.7137 11.8245 17.1045C12.6567 19.2738 14.3209 23.7014 14.6484 24.3522C15.0635 25.2199 15.3626 25.0476 15.9851 24.7861C16.4897 24.5691 23.7712 20.7506 24.0967 20.5337C24.4242 20.3168 24.6318 20.186 24.3937 19.7076C24.2147 19.3599 22.3145 15.583 21.3033 13.6307C21.9869 13.3692 24.4527 12.4153 24.7213 12.2846C25.0183 12.1598 25.0773 11.9428 24.9003 11.6813ZM11.141 15.8059C11.0514 15.8505 6.80339 17.3244 6.59384 17.4106C6.3558 17.4967 6.3558 17.4551 6.3558 17.3244C6.29883 17.1936 1.30616 2.08904 1.21664 1.91668C1.15764 1.74433 1.15764 1.56901 1.21664 1.56901C1.27564 1.56901 5.22868 1.04898 5.34668 1.04898C5.4952 1.04898 5.46468 1.09355 5.52572 1.22133C5.52572 1.22133 11.082 15.2413 11.1715 15.4582C11.2895 15.6752 11.2305 15.7613 11.141 15.8059ZM23.0876 19.0598C23.1466 19.2321 23.2361 19.3213 22.9981 19.4075C22.7905 19.5382 15.8366 22.9674 15.6881 23.0536C15.5396 23.1398 15.45 23.1844 15.273 22.7921C15.094 22.4028 12.8357 16.7152 12.8357 16.7152L20.2352 13.8952C20.4142 13.809 20.4732 13.7644 20.5912 14.0259C20.7092 14.329 23.0286 18.929 23.0876 19.0598ZM23.5616 11.4198C23.3826 11.4644 20.6787 12.4629 20.6787 12.4629L18.4509 8.03519C18.3919 7.90444 18.3329 7.77369 18.4814 7.73209C18.63 7.68751 21.1568 7.03674 21.2748 6.99513C21.3928 6.95056 21.4823 6.90896 21.6309 7.21206C21.7794 7.47356 23.6816 11.0306 23.7712 11.1613C23.8586 11.2921 23.7406 11.3782 23.5616 11.4198Z" fill="black"/>
</g>
<defs>
<clipPath id="clip0_328_763">
<rect width="25" height="25" fill="white"/>
</clipPath>
</defs>
</svg>
