<svg width="56" height="55" viewBox="0 0 56 55" fill="none" xmlns="http://www.w3.org/2000/svg">
<path d="M9.92676 14.1263V40.8752C9.92676 43.4001 11.9136 45.387 14.4385 45.387H41.1874C42.4232 45.387 43.6039 44.7957 44.3568 44.0446C45.1628 43.2385 45.6991 42.2176 45.6991 40.8752V14.1263C45.6991 11.6015 43.7122 9.61462 41.1874 9.61462H14.4385C13.0961 9.61462 12.0752 10.1526 11.2691 10.957C10.5163 11.7098 9.92676 12.8906 9.92676 14.1263ZM14.7616 17.6704C14.7616 15.9517 16.1589 14.4477 17.8777 14.4477C19.6497 14.4477 21.1004 15.9517 21.1004 17.6704C21.1004 19.4424 19.6497 20.8398 17.8777 20.8398C16.1589 20.8398 14.7616 19.4424 14.7616 17.6704ZM23.4086 39.746V23.3646C23.4086 22.9882 23.785 22.6668 24.0532 22.6668H28.6182C29.2627 22.6668 29.2627 23.4196 29.2627 23.9026C30.5518 22.6135 32.2172 22.2904 33.936 22.2904C38.1263 22.2904 40.811 24.2773 40.811 28.6824V39.7478C40.811 40.1242 40.4879 40.4456 40.1664 40.4456H35.4399C35.0635 40.4456 34.7954 40.0692 34.7954 39.7478V29.7567C34.7954 28.0912 34.3124 27.1785 32.4321 27.1785C30.0688 27.1785 29.4775 28.7357 29.4775 30.8309V39.7478C29.4775 40.1242 29.1011 40.4456 28.7247 40.4456H24.0514C23.7833 40.4456 23.4069 40.0692 23.4069 39.7478L23.4086 39.746ZM14.8682 39.746V23.3646C14.8682 22.9882 15.2446 22.6668 15.5127 22.6668H20.186C20.6157 22.6668 20.8838 22.9349 20.8838 23.3646V39.746C20.8838 40.1224 20.5607 40.4438 20.186 40.4438H15.5127C15.1896 40.4438 14.8682 40.0674 14.8682 39.746Z" fill="black"/>
</svg>
