<svg width="65" height="25" viewBox="0 0 65 25" fill="none" xmlns="http://www.w3.org/2000/svg">
<path d="M2.51221 18.8018C2.26318 18.8018 2.04102 18.7358 1.8457 18.604C1.65039 18.4771 1.49658 18.2988 1.38428 18.0693C1.27686 17.8398 1.22314 17.5786 1.22314 17.2856V15.103C1.22314 14.6685 1.17676 14.3389 1.08398 14.1143C0.996094 13.8848 0.839844 13.7212 0.615234 13.6235C0.483398 13.5454 0.385742 13.46 0.322266 13.3672C0.263672 13.2695 0.234375 13.1401 0.234375 12.979V12.8179C0.234375 12.6567 0.263672 12.5273 0.322266 12.4297C0.385742 12.332 0.483398 12.2441 0.615234 12.166C0.839844 12.0732 0.996094 11.9146 1.08398 11.6899C1.17676 11.4604 1.22314 11.1309 1.22314 10.7012V8.51123C1.22314 8.21826 1.27686 7.95703 1.38428 7.72754C1.49658 7.49805 1.65039 7.31982 1.8457 7.19287C2.04102 7.06592 2.26318 7.00244 2.51221 7.00244H3.0249C3.16162 7.00244 3.25928 7.04395 3.31787 7.12695C3.38135 7.20508 3.41309 7.33447 3.41309 7.51514V7.69824C3.41309 7.86914 3.38623 7.99854 3.33252 8.08643C3.27881 8.17432 3.19336 8.2207 3.07617 8.22559H3.09814C2.96143 8.22559 2.86377 8.26221 2.80518 8.33545C2.75146 8.40381 2.72461 8.521 2.72461 8.68701V10.9062C2.72461 11.3848 2.64648 11.7974 2.49023 12.144C2.33887 12.4858 2.12158 12.7373 1.83838 12.8984C2.12646 13.0645 2.34619 13.3184 2.49756 13.6602C2.64893 13.9971 2.72461 14.4072 2.72461 14.8906V17.1099C2.72461 17.271 2.74902 17.3882 2.79785 17.4614C2.84668 17.5347 2.9248 17.5713 3.03223 17.5713H3.04688C3.17383 17.5811 3.2666 17.6274 3.3252 17.7104C3.38379 17.7935 3.41309 17.9229 3.41309 18.0986V18.2744C3.41309 18.46 3.38135 18.5942 3.31787 18.6772C3.25928 18.7603 3.16162 18.8018 3.0249 18.8018H2.51221Z" fill="#020202"/>
<path d="M7.66711 17H5.98547V8.59766H11.8683V10.2793H7.66711V11.9609H10.1866V13.6426H7.66711V17ZM13.7316 17H12.132V10.7246H12.5187L13.046 11.4688C13.3038 11.2344 13.5968 11.0547 13.9249 10.9297C14.253 10.8008 14.5929 10.7363 14.9445 10.7363H16.3566V12.3301H14.9445C14.7765 12.3301 14.6183 12.3613 14.4698 12.4238C14.3214 12.4863 14.1925 12.5723 14.0831 12.6816C13.9738 12.791 13.8878 12.9199 13.8253 13.0684C13.7628 13.2168 13.7316 13.375 13.7316 13.543V17ZM19.4796 15.4648C19.5421 15.4844 19.6046 15.498 19.6671 15.5059C19.7296 15.5098 19.7921 15.5117 19.8546 15.5117C20.0109 15.5117 20.1612 15.4902 20.3058 15.4473C20.4503 15.4043 20.5851 15.3438 20.7101 15.2656C20.839 15.1836 20.9523 15.0859 21.0499 14.9727C21.1515 14.8555 21.2335 14.7266 21.296 14.5859L22.4679 15.7637C22.3195 15.9746 22.1476 16.1641 21.9523 16.332C21.7609 16.5 21.5519 16.6426 21.3253 16.7598C21.1027 16.877 20.8663 16.9648 20.6163 17.0234C20.3702 17.0859 20.1163 17.1172 19.8546 17.1172C19.4132 17.1172 18.9972 17.0352 18.6066 16.8711C18.2198 16.707 17.88 16.4785 17.587 16.1855C17.298 15.8926 17.0695 15.5449 16.9015 15.1426C16.7335 14.7363 16.6495 14.291 16.6495 13.8066C16.6495 13.3105 16.7335 12.8574 16.9015 12.4473C17.0695 12.0371 17.298 11.6875 17.587 11.3984C17.88 11.1094 18.2198 10.8848 18.6066 10.7246C18.9972 10.5645 19.4132 10.4844 19.8546 10.4844C20.1163 10.4844 20.3722 10.5156 20.6222 10.5781C20.8722 10.6406 21.1085 10.7305 21.3312 10.8477C21.5577 10.9648 21.7687 11.1094 21.964 11.2812C22.1593 11.4492 22.3312 11.6387 22.4796 11.8496L19.4796 15.4648ZM20.2999 12.166C20.2257 12.1387 20.1515 12.1211 20.0773 12.1133C20.007 12.1055 19.9327 12.1016 19.8546 12.1016C19.6359 12.1016 19.4288 12.1426 19.2335 12.2246C19.0421 12.3027 18.8741 12.416 18.7296 12.5645C18.589 12.7129 18.4777 12.8926 18.3956 13.1035C18.3136 13.3105 18.2726 13.5449 18.2726 13.8066C18.2726 13.8652 18.2745 13.9316 18.2784 14.0059C18.2862 14.0801 18.296 14.1562 18.3077 14.2344C18.3234 14.3086 18.3409 14.3809 18.3605 14.4512C18.38 14.5215 18.4054 14.584 18.4366 14.6387L20.2999 12.166ZM29.3058 17H28.9191L28.298 16.1387C28.1456 16.2754 27.9835 16.4043 27.8116 16.5254C27.6437 16.6426 27.4659 16.7461 27.2784 16.8359C27.0909 16.9219 26.8976 16.9902 26.6984 17.041C26.503 17.0918 26.3038 17.1172 26.1007 17.1172C25.6593 17.1172 25.2433 17.0352 24.8527 16.8711C24.4659 16.7031 24.1261 16.4727 23.8331 16.1797C23.5441 15.8828 23.3155 15.5332 23.1476 15.1309C22.9796 14.7246 22.8956 14.2832 22.8956 13.8066C22.8956 13.334 22.9796 12.8945 23.1476 12.4883C23.3155 12.082 23.5441 11.7305 23.8331 11.4336C24.1261 11.1367 24.4659 10.9043 24.8527 10.7363C25.2433 10.5684 25.6593 10.4844 26.1007 10.4844C26.2413 10.4844 26.3859 10.4961 26.5343 10.5195C26.6866 10.543 26.8331 10.582 26.9737 10.6367C27.1183 10.6875 27.253 10.7559 27.378 10.8418C27.503 10.9277 27.6085 11.0332 27.6945 11.1582V8.22852H29.3058V17ZM27.6945 13.8066C27.6945 13.5879 27.6515 13.377 27.5655 13.1738C27.4835 12.9668 27.3702 12.7852 27.2257 12.6289C27.0812 12.4688 26.9112 12.3418 26.7159 12.248C26.5245 12.1504 26.3195 12.1016 26.1007 12.1016C25.882 12.1016 25.6749 12.1406 25.4796 12.2188C25.2882 12.2969 25.1202 12.4102 24.9757 12.5586C24.8351 12.7031 24.7237 12.8809 24.6417 13.0918C24.5597 13.3027 24.5187 13.541 24.5187 13.8066C24.5187 14.0371 24.5597 14.2559 24.6417 14.4629C24.7237 14.6699 24.8351 14.8516 24.9757 15.0078C25.1202 15.1641 25.2882 15.2871 25.4796 15.377C25.6749 15.4668 25.882 15.5117 26.1007 15.5117C26.3195 15.5117 26.5245 15.4648 26.7159 15.3711C26.9112 15.2734 27.0812 15.1465 27.2257 14.9902C27.3702 14.8301 27.4835 14.6484 27.5655 14.4453C27.6515 14.2383 27.6945 14.0254 27.6945 13.8066ZM36.5948 17H36.2081L35.587 16.1387C35.4347 16.2754 35.2726 16.4043 35.1007 16.5254C34.9327 16.6426 34.755 16.7461 34.5675 16.8359C34.38 16.9219 34.1866 16.9902 33.9874 17.041C33.7921 17.0918 33.5929 17.1172 33.3898 17.1172C32.9484 17.1172 32.5323 17.0352 32.1417 16.8711C31.755 16.7031 31.4152 16.4727 31.1222 16.1797C30.8331 15.8828 30.6046 15.5332 30.4366 15.1309C30.2687 14.7246 30.1847 14.2832 30.1847 13.8066C30.1847 13.334 30.2687 12.8945 30.4366 12.4883C30.6046 12.082 30.8331 11.7305 31.1222 11.4336C31.4152 11.1367 31.755 10.9043 32.1417 10.7363C32.5323 10.5684 32.9484 10.4844 33.3898 10.4844C33.5304 10.4844 33.6749 10.4961 33.8234 10.5195C33.9757 10.543 34.1222 10.582 34.2628 10.6367C34.4073 10.6875 34.5421 10.7559 34.6671 10.8418C34.7921 10.9277 34.8976 11.0332 34.9835 11.1582V8.22852H36.5948V17ZM34.9835 13.8066C34.9835 13.5879 34.9405 13.377 34.8546 13.1738C34.7726 12.9668 34.6593 12.7852 34.5148 12.6289C34.3702 12.4688 34.2003 12.3418 34.005 12.248C33.8136 12.1504 33.6085 12.1016 33.3898 12.1016C33.171 12.1016 32.964 12.1406 32.7687 12.2188C32.5773 12.2969 32.4093 12.4102 32.2648 12.5586C32.1241 12.7031 32.0128 12.8809 31.9308 13.0918C31.8487 13.3027 31.8077 13.541 31.8077 13.8066C31.8077 14.0371 31.8487 14.2559 31.9308 14.4629C32.0128 14.6699 32.1241 14.8516 32.2648 15.0078C32.4093 15.1641 32.5773 15.2871 32.7687 15.377C32.964 15.4668 33.171 15.5117 33.3898 15.5117C33.6085 15.5117 33.8136 15.4648 34.005 15.3711C34.2003 15.2734 34.3702 15.1465 34.5148 14.9902C34.6593 14.8301 34.7726 14.6484 34.8546 14.4453C34.9405 14.2383 34.9835 14.0254 34.9835 13.8066ZM39.3312 19.3906V17.7793L40.2218 17.791C40.378 17.791 40.5284 17.7656 40.673 17.7148C40.8175 17.6641 40.9503 17.5938 41.0714 17.5039C41.1964 17.4141 41.3058 17.3066 41.3995 17.1816C41.4933 17.0605 41.5695 16.9277 41.628 16.7832C41.4523 16.8574 41.2726 16.9316 41.089 17.0059C40.9093 17.0801 40.7277 17.1172 40.5441 17.1172C40.1573 17.1172 39.7941 17.0488 39.4542 16.9121C39.1144 16.7754 38.8155 16.582 38.5577 16.332C38.3038 16.0781 38.1027 15.7715 37.9542 15.4121C37.8097 15.0488 37.7374 14.6426 37.7374 14.1934V10.7246H39.3312V14.1934C39.3312 14.416 39.3624 14.6113 39.4249 14.7793C39.4913 14.9434 39.5792 15.082 39.6886 15.1953C39.798 15.3047 39.9249 15.3867 40.0695 15.4414C40.2179 15.4961 40.3761 15.5234 40.5441 15.5234C40.7081 15.5234 40.8624 15.4863 41.007 15.4121C41.1554 15.334 41.2843 15.2324 41.3937 15.1074C41.503 14.9824 41.589 14.8418 41.6515 14.6855C41.714 14.5254 41.7452 14.3613 41.7452 14.1934V10.7246H43.3566V16.209C43.3527 16.6504 43.2667 17.0645 43.0988 17.4512C42.9308 17.8379 42.7003 18.1758 42.4073 18.4648C42.1183 18.7539 41.7804 18.9824 41.3937 19.1504C41.007 19.3184 40.5929 19.4023 40.1515 19.4023L39.3312 19.3906ZM48.2902 13.6426C48.2902 14.1074 48.2023 14.5449 48.0265 14.9551C47.8507 15.3613 47.6105 15.7168 47.3058 16.0215C47.005 16.3223 46.6495 16.5605 46.2394 16.7363C45.8331 16.9121 45.3976 17 44.9327 17C44.6515 17 44.3702 16.9648 44.089 16.8945V15.0898C44.214 15.1641 44.3488 15.2207 44.4933 15.2598C44.6378 15.2988 44.7843 15.3184 44.9327 15.3184C45.1632 15.3184 45.38 15.2754 45.5831 15.1895C45.7902 15.0996 45.9698 14.9785 46.1222 14.8262C46.2745 14.6738 46.3937 14.4961 46.4796 14.293C46.5695 14.0898 46.6144 13.873 46.6144 13.6426V8.59766H48.2902V13.6426ZM49.2628 11.1172C49.2628 10.7695 49.3292 10.4434 49.462 10.1387C49.5948 9.83398 49.7745 9.56836 50.0011 9.3418C50.2316 9.11133 50.4991 8.92969 50.8038 8.79688C51.1085 8.66406 51.4347 8.59766 51.7823 8.59766H55.6378V10.2793H51.7823C51.6652 10.2793 51.5558 10.3008 51.4542 10.3438C51.3527 10.3867 51.2628 10.4473 51.1847 10.5254C51.1105 10.5996 51.0519 10.6875 51.0089 10.7891C50.9659 10.8906 50.9445 11 50.9445 11.1172C50.9445 11.2344 50.9659 11.3457 51.0089 11.4512C51.0519 11.5527 51.1105 11.6426 51.1847 11.7207C51.2628 11.7949 51.3527 11.8535 51.4542 11.8965C51.5558 11.9395 51.6652 11.9609 51.7823 11.9609H53.464C53.8116 11.9609 54.1378 12.0273 54.4425 12.1602C54.7511 12.2891 55.0187 12.4688 55.2452 12.6992C55.4757 12.9258 55.6554 13.1934 55.7843 13.502C55.9171 13.8066 55.9835 14.1328 55.9835 14.4805C55.9835 14.8281 55.9171 15.1543 55.7843 15.459C55.6554 15.7637 55.4757 16.0312 55.2452 16.2617C55.0187 16.4883 54.7511 16.668 54.4425 16.8008C54.1378 16.9336 53.8116 17 53.464 17H49.7316V15.3184H53.464C53.5812 15.3184 53.6905 15.2969 53.7921 15.2539C53.8937 15.2109 53.9816 15.1523 54.0558 15.0781C54.1339 15 54.1945 14.9102 54.2374 14.8086C54.2804 14.707 54.3019 14.5977 54.3019 14.4805C54.3019 14.3633 54.2804 14.2539 54.2374 14.1523C54.1945 14.0508 54.1339 13.9629 54.0558 13.8887C53.9816 13.8105 53.8937 13.75 53.7921 13.707C53.6905 13.6641 53.5812 13.6426 53.464 13.6426H51.7823C51.4347 13.6426 51.1085 13.5762 50.8038 13.4434C50.4991 13.3105 50.2316 13.1309 50.0011 12.9043C49.7745 12.6738 49.5948 12.4062 49.462 12.1016C49.3292 11.793 49.2628 11.4648 49.2628 11.1172Z" fill="#112F91"/>
<path d="M60.5432 18.8018C60.4065 18.8018 60.3064 18.7603 60.2429 18.6772C60.1843 18.5942 60.155 18.46 60.155 18.2744V18.0986C60.155 17.9131 60.1819 17.7788 60.2356 17.6958C60.2942 17.6128 60.3894 17.5713 60.5213 17.5713H60.5286C60.6409 17.5713 60.7214 17.5322 60.7703 17.4541C60.8191 17.3809 60.8435 17.2661 60.8435 17.1099V14.8906C60.8435 14.4072 60.9192 13.9971 61.0706 13.6602C61.2219 13.3184 61.4417 13.0645 61.7297 12.8984C61.4465 12.7373 61.2268 12.4858 61.0706 12.144C60.9192 11.7974 60.8435 11.3848 60.8435 10.9062V8.68701C60.8435 8.51611 60.8191 8.39648 60.7703 8.32812C60.7214 8.25977 60.6287 8.22559 60.492 8.22559H60.4773C60.365 8.22559 60.282 8.18164 60.2283 8.09375C60.1795 8.00586 60.155 7.87402 60.155 7.69824V7.51514C60.155 7.33447 60.1843 7.20508 60.2429 7.12695C60.3064 7.04395 60.4065 7.00244 60.5432 7.00244H61.0559C61.3001 7.00244 61.5198 7.06836 61.7151 7.2002C61.9153 7.32715 62.0691 7.50537 62.1765 7.73486C62.2888 7.95947 62.345 8.21826 62.345 8.51123V10.7012C62.345 11.1309 62.3889 11.4604 62.4768 11.6899C62.5696 11.9146 62.7283 12.0732 62.9529 12.166C63.0847 12.2441 63.1799 12.332 63.2385 12.4297C63.302 12.5273 63.3338 12.6567 63.3338 12.8179V12.979C63.3338 13.1401 63.302 13.2695 63.2385 13.3672C63.1799 13.46 63.0847 13.5454 62.9529 13.6235C62.7283 13.7212 62.5696 13.8848 62.4768 14.1143C62.3889 14.3389 62.345 14.6685 62.345 15.103V17.2856C62.345 17.5786 62.2888 17.8398 62.1765 18.0693C62.0691 18.2988 61.9153 18.4771 61.7151 18.604C61.5198 18.7358 61.3001 18.8018 61.0559 18.8018H60.5432Z" fill="black"/>
<g filter="url(#filter0_d_228_729)">
<path d="M56.6703 3.67698C56.4994 3.23851 56.203 2.86012 55.8184 2.58904C55.4337 2.31797 54.9776 2.16623 54.5072 2.15278C54.4968 2.15233 54.4872 2.15538 54.4769 2.15575C54.4633 2.15289 54.4494 2.15104 54.4355 2.15021C52.2408 2.08337 49.8576 3.43485 49.1826 5.6882C48.6708 5.11284 47.9167 4.78562 47.1595 4.90561C46.1936 5.05869 45.4146 5.89277 45.2549 6.89892C45.2465 6.95927 45.257 7.02071 45.2848 7.07491C45.3126 7.12912 45.3564 7.17347 45.4102 7.20195C45.5933 7.312 45.7186 7.38944 45.9323 7.41403C46.3345 7.46033 46.7372 7.49913 47.1407 7.53043C47.9278 7.59147 48.7162 7.62485 49.5057 7.63058C51.1078 7.64275 52.7086 7.5386 54.2956 7.31895C54.8241 7.24583 55.3335 7.17356 55.7935 6.87621C56.1312 6.65144 56.4041 6.34227 56.5853 5.9794C56.9414 5.28709 56.962 4.40479 56.6703 3.67698Z" fill="#3F3D56"/>
<path d="M56.4438 3.8164C56.2847 3.42828 56.0136 3.09636 55.665 2.863C55.3033 2.62617 54.8825 2.4952 54.4502 2.48486L54.4244 2.48757L54.4 2.48579C54.3921 2.48419 54.3841 2.48316 54.376 2.48271C53.6536 2.47292 52.9359 2.60065 52.2612 2.8591C50.9638 3.35029 49.7874 4.31406 49.3383 5.71655L49.2743 5.91777L49.1307 5.76323C48.6581 5.25798 48.0025 5.00314 47.3602 5.07065C47.3283 5.074 47.2964 5.07798 47.264 5.08325C46.3762 5.2213 45.6483 5.94654 45.4932 6.84711C45.4903 6.87872 45.4973 6.91046 45.5133 6.93786C45.5294 6.96527 45.5536 6.98696 45.5826 6.9999L45.5932 7.00624C45.763 7.10212 45.8654 7.16032 46.0445 7.17941C46.4347 7.22042 46.831 7.25458 47.2222 7.28119C47.9808 7.3332 48.7567 7.3604 49.5274 7.36204C50.8905 7.36507 52.2526 7.28562 53.6062 7.12412C53.8044 7.10079 54.0021 7.07567 54.1991 7.04874C54.7064 6.97989 55.186 6.91394 55.619 6.64659C55.9288 6.45034 56.1823 6.17703 56.3547 5.85342C56.5172 5.54093 56.6094 5.19667 56.6248 4.84478C56.6402 4.49289 56.5784 4.14189 56.4438 3.8164Z" fill="white"/>
<path d="M53.6061 7.12407C52.2526 7.28557 50.8905 7.36502 49.5274 7.36199C48.7567 7.36035 47.9808 7.33315 47.2222 7.28115C46.831 7.25453 46.4347 7.22037 46.0445 7.17936C45.8654 7.16028 45.7629 7.10207 45.5931 7.0062L45.5825 6.99985C45.5535 6.98692 45.5293 6.96522 45.5133 6.93782C45.4973 6.91041 45.4902 6.87868 45.4932 6.84706C45.6483 5.9465 46.3762 5.22125 47.2639 5.0832C47.2963 5.07793 47.3282 5.07396 47.3602 5.0706C48.0025 5.00309 48.6581 5.25793 49.1307 5.76318L49.2743 5.91773L49.3383 5.7165C49.7874 4.31401 50.9637 3.35024 52.2612 2.85905C52.5559 3.07414 52.7685 3.429 52.7065 3.78536C52.632 4.21761 52.19 4.52879 52.1564 4.96606C52.1256 5.36513 52.4441 5.69952 52.7612 5.94335C53.0782 6.18655 53.4408 6.42621 53.5652 6.80586C53.5986 6.90844 53.6125 7.01637 53.6061 7.12407Z" fill="#0C81D6"/>
<path d="M55.3623 5.34544L55.8138 4.78966L55.2566 4.33989L55.3943 4.17049L56.1213 4.75734L55.5322 5.48252L55.3623 5.34544Z" fill="#E6E6E6"/>
<path d="M53.6439 5.52092L53.0862 5.0712L53.5377 4.51542L53.3678 4.37834L52.7792 5.10347L53.5062 5.69032L53.6439 5.52092Z" fill="#E6E6E6"/>
<path d="M55.3521 5.24803L55.8036 4.69225L55.2464 4.24247L55.384 4.07307L56.1111 4.65993L55.5219 5.38511L55.3521 5.24803Z" fill="#0C81D6"/>
<path d="M53.8629 4.93261L54.0679 4.91106L54.0463 4.70605L53.8413 4.7276L53.8629 4.93261ZM54.8704 4.61943L54.6654 4.64098L54.687 4.84599L54.892 4.82444L54.8704 4.61943ZM54.2749 4.8893L54.4799 4.86775L54.4584 4.66274L54.2534 4.68429L54.2749 4.8893Z" fill="#0C81D6"/>
<path d="M53.6336 5.4235L53.076 4.97379L53.5274 4.41801L53.3576 4.28092L52.769 5.00605L53.496 5.5929L53.6336 5.4235Z" fill="#0C81D6"/>
</g>
<g filter="url(#filter1_d_228_729)">
<path d="M6.32624 21.7116C7.05869 21.7116 7.65247 21.1046 7.65247 20.3558C7.65247 19.607 7.05869 19 6.32624 19C5.59378 19 5 19.607 5 20.3558C5 21.1046 5.59378 21.7116 6.32624 21.7116Z" fill="#3F3D56"/>
<path d="M10.9078 21.7116C11.6402 21.7116 12.234 21.1046 12.234 20.3558C12.234 19.607 11.6402 19 10.9078 19C10.1753 19 9.58154 19.607 9.58154 20.3558C9.58154 21.1046 10.1753 21.7116 10.9078 21.7116Z" fill="#3F3D56"/>
<path d="M15.4893 21.7116C16.2218 21.7116 16.8156 21.1046 16.8156 20.3558C16.8156 19.607 16.2218 19 15.4893 19C14.7569 19 14.1631 19.607 14.1631 20.3558C14.1631 21.1046 14.7569 21.7116 15.4893 21.7116Z" fill="#3F3D56"/>
<path d="M20.7135 21.4274C20.6926 21.4274 20.6719 21.4232 20.6526 21.4151C20.6334 21.407 20.6159 21.3951 20.6014 21.3802L19.7065 20.4654C19.6778 20.4361 19.6617 20.3968 19.6617 20.3558C19.6617 20.3148 19.6778 20.2754 19.7065 20.2461L20.6014 19.3314C20.6305 19.3021 20.6701 19.2855 20.7114 19.2853C20.7528 19.285 20.7925 19.3011 20.8221 19.33C20.8516 19.3589 20.8686 19.3983 20.8692 19.4396C20.8699 19.481 20.8542 19.5209 20.8256 19.5507L20.038 20.3558L20.8256 21.1609C20.8472 21.1829 20.8617 21.2109 20.8675 21.2412C20.8733 21.2715 20.87 21.3029 20.858 21.3314C20.846 21.3598 20.8259 21.3841 20.8002 21.4012C20.7745 21.4183 20.7443 21.4274 20.7135 21.4274Z" fill="black"/>
<path d="M22.2172 21.4274C22.1864 21.4274 22.1562 21.4183 22.1305 21.4012C22.1048 21.3841 22.0847 21.3598 22.0727 21.3314C22.0607 21.3029 22.0574 21.2715 22.0632 21.2412C22.069 21.2109 22.0836 21.1829 22.1051 21.1609L22.8926 20.3558L22.1051 19.5507C22.0765 19.5209 22.0608 19.481 22.0615 19.4396C22.0621 19.3983 22.0791 19.3589 22.1086 19.33C22.1382 19.3011 22.1779 19.285 22.2193 19.2853C22.2606 19.2855 22.3002 19.3021 22.3293 19.3314L23.2241 20.2461C23.2528 20.2754 23.2689 20.3148 23.2689 20.3558C23.2689 20.3968 23.2528 20.4361 23.2241 20.4654L22.3293 21.3802C22.3148 21.3952 22.2973 21.407 22.2781 21.4151C22.2588 21.4232 22.2381 21.4274 22.2172 21.4274Z" fill="#969696"/>
</g>
<defs>
<filter id="filter0_d_228_729" x="45.2521" y="1.14783" width="18.6203" height="9.4837" filterUnits="userSpaceOnUse" color-interpolation-filters="sRGB">
<feFlood flood-opacity="0" result="BackgroundImageFix"/>
<feColorMatrix in="SourceAlpha" type="matrix" values="0 0 0 0 0 0 0 0 0 0 0 0 0 0 0 0 0 0 127 0" result="hardAlpha"/>
<feOffset dx="5" dy="1"/>
<feGaussianBlur stdDeviation="1"/>
<feComposite in2="hardAlpha" operator="out"/>
<feColorMatrix type="matrix" values="0 0 0 0 0 0 0 0 0 0 0 0 0 0 0 0 0 0 0.15 0"/>
<feBlend mode="normal" in2="BackgroundImageFix" result="effect1_dropShadow_228_729"/>
<feBlend mode="normal" in="SourceGraphic" in2="effect1_dropShadow_228_729" result="shape"/>
</filter>
<filter id="filter1_d_228_729" x="3" y="17" width="20.2689" height="4.71161" filterUnits="userSpaceOnUse" color-interpolation-filters="sRGB">
<feFlood flood-opacity="0" result="BackgroundImageFix"/>
<feColorMatrix in="SourceAlpha" type="matrix" values="0 0 0 0 0 0 0 0 0 0 0 0 0 0 0 0 0 0 127 0" result="hardAlpha"/>
<feOffset dx="-1" dy="-1"/>
<feGaussianBlur stdDeviation="0.5"/>
<feComposite in2="hardAlpha" operator="out"/>
<feColorMatrix type="matrix" values="0 0 0 0 0 0 0 0 0 0 0 0 0 0 0 0 0 0 0.15 0"/>
<feBlend mode="normal" in2="BackgroundImageFix" result="effect1_dropShadow_228_729"/>
<feBlend mode="normal" in="SourceGraphic" in2="effect1_dropShadow_228_729" result="shape"/>
</filter>
</defs>
</svg>
