<svg width="65" height="25" viewBox="0 0 65 25" fill="none" xmlns="http://www.w3.org/2000/svg">
<path d="M2.51221 18.8017C2.26318 18.8017 2.04102 18.7358 1.8457 18.6039C1.65039 18.477 1.49658 18.2988 1.38428 18.0693C1.27686 17.8398 1.22314 17.5786 1.22314 17.2856V15.103C1.22314 14.6684 1.17676 14.3388 1.08398 14.1142C0.996094 13.8847 0.839844 13.7211 0.615234 13.6235C0.483398 13.5453 0.385742 13.4599 0.322266 13.3671C0.263672 13.2695 0.234375 13.1401 0.234375 12.9789V12.8178C0.234375 12.6567 0.263672 12.5273 0.322266 12.4296C0.385742 12.332 0.483398 12.2441 0.615234 12.166C0.839844 12.0732 0.996094 11.9145 1.08398 11.6899C1.17676 11.4604 1.22314 11.1308 1.22314 10.7011V8.51117C1.22314 8.2182 1.27686 7.95697 1.38428 7.72748C1.49658 7.49799 1.65039 7.31976 1.8457 7.19281C2.04102 7.06586 2.26318 7.00238 2.51221 7.00238H3.0249C3.16162 7.00238 3.25928 7.04388 3.31787 7.12689C3.38135 7.20502 3.41309 7.33441 3.41309 7.51508V7.69818C3.41309 7.86908 3.38623 7.99847 3.33252 8.08636C3.27881 8.17426 3.19336 8.22064 3.07617 8.22552H3.09814C2.96143 8.22552 2.86377 8.26215 2.80518 8.33539C2.75146 8.40375 2.72461 8.52094 2.72461 8.68695V10.9062C2.72461 11.3847 2.64648 11.7973 2.49023 12.144C2.33887 12.4858 2.12158 12.7372 1.83838 12.8984C2.12646 13.0644 2.34619 13.3183 2.49756 13.6601C2.64893 13.997 2.72461 14.4072 2.72461 14.8906V17.1098C2.72461 17.2709 2.74902 17.3881 2.79785 17.4614C2.84668 17.5346 2.9248 17.5712 3.03223 17.5712H3.04688C3.17383 17.581 3.2666 17.6274 3.3252 17.7104C3.38379 17.7934 3.41309 17.9228 3.41309 18.0986V18.2744C3.41309 18.4599 3.38135 18.5942 3.31787 18.6772C3.25928 18.7602 3.16162 18.8017 3.0249 18.8017H2.51221Z" fill="#020202"/>
<path d="M7.66711 16.9999H5.98547V8.5976H11.8683V10.2792H7.66711V11.9609H10.1866V13.6425H7.66711V16.9999ZM13.7316 16.9999H12.132V10.7245H12.5187L13.046 11.4687C13.3038 11.2343 13.5968 11.0546 13.9249 10.9296C14.253 10.8007 14.5929 10.7363 14.9445 10.7363H16.3566V12.33H14.9445C14.7765 12.33 14.6183 12.3613 14.4698 12.4238C14.3214 12.4863 14.1925 12.5722 14.0831 12.6816C13.9738 12.791 13.8878 12.9199 13.8253 13.0683C13.7628 13.2167 13.7316 13.3749 13.7316 13.5429V16.9999ZM19.4796 15.4648C19.5421 15.4843 19.6046 15.498 19.6671 15.5058C19.7296 15.5097 19.7921 15.5117 19.8546 15.5117C20.0109 15.5117 20.1612 15.4902 20.3058 15.4472C20.4503 15.4042 20.5851 15.3437 20.7101 15.2656C20.839 15.1835 20.9523 15.0859 21.0499 14.9726C21.1515 14.8554 21.2335 14.7265 21.296 14.5859L22.4679 15.7636C22.3195 15.9745 22.1476 16.164 21.9523 16.332C21.7609 16.4999 21.5519 16.6425 21.3253 16.7597C21.1027 16.8769 20.8663 16.9648 20.6163 17.0234C20.3702 17.0859 20.1163 17.1171 19.8546 17.1171C19.4132 17.1171 18.9972 17.0351 18.6066 16.871C18.2198 16.707 17.88 16.4785 17.587 16.1855C17.298 15.8925 17.0695 15.5449 16.9015 15.1425C16.7335 14.7363 16.6495 14.291 16.6495 13.8066C16.6495 13.3105 16.7335 12.8574 16.9015 12.4472C17.0695 12.037 17.298 11.6874 17.587 11.3984C17.88 11.1093 18.2198 10.8847 18.6066 10.7245C18.9972 10.5644 19.4132 10.4843 19.8546 10.4843C20.1163 10.4843 20.3722 10.5156 20.6222 10.5781C20.8722 10.6406 21.1085 10.7304 21.3312 10.8476C21.5577 10.9648 21.7687 11.1093 21.964 11.2812C22.1593 11.4492 22.3312 11.6386 22.4796 11.8495L19.4796 15.4648ZM20.2999 12.166C20.2257 12.1386 20.1515 12.121 20.0773 12.1132C20.007 12.1054 19.9327 12.1015 19.8546 12.1015C19.6359 12.1015 19.4288 12.1425 19.2335 12.2245C19.0421 12.3027 18.8741 12.416 18.7296 12.5644C18.589 12.7128 18.4777 12.8925 18.3956 13.1035C18.3136 13.3105 18.2726 13.5449 18.2726 13.8066C18.2726 13.8652 18.2745 13.9316 18.2784 14.0058C18.2862 14.08 18.296 14.1562 18.3077 14.2343C18.3234 14.3085 18.3409 14.3808 18.3605 14.4511C18.38 14.5214 18.4054 14.5839 18.4366 14.6386L20.2999 12.166ZM29.3058 16.9999H28.9191L28.298 16.1386C28.1456 16.2753 27.9835 16.4042 27.8116 16.5253C27.6437 16.6425 27.4659 16.746 27.2784 16.8359C27.0909 16.9218 26.8976 16.9902 26.6984 17.041C26.503 17.0917 26.3038 17.1171 26.1007 17.1171C25.6593 17.1171 25.2433 17.0351 24.8527 16.871C24.4659 16.7031 24.1261 16.4726 23.8331 16.1796C23.5441 15.8828 23.3155 15.5331 23.1476 15.1308C22.9796 14.7245 22.8956 14.2831 22.8956 13.8066C22.8956 13.3339 22.9796 12.8945 23.1476 12.4882C23.3155 12.082 23.5441 11.7304 23.8331 11.4335C24.1261 11.1367 24.4659 10.9042 24.8527 10.7363C25.2433 10.5683 25.6593 10.4843 26.1007 10.4843C26.2413 10.4843 26.3859 10.496 26.5343 10.5195C26.6866 10.5429 26.8331 10.582 26.9737 10.6367C27.1183 10.6874 27.253 10.7558 27.378 10.8417C27.503 10.9277 27.6085 11.0331 27.6945 11.1581V8.22845H29.3058V16.9999ZM27.6945 13.8066C27.6945 13.5878 27.6515 13.3769 27.5655 13.1738C27.4835 12.9667 27.3702 12.7851 27.2257 12.6288C27.0812 12.4687 26.9112 12.3417 26.7159 12.248C26.5245 12.1503 26.3195 12.1015 26.1007 12.1015C25.882 12.1015 25.6749 12.1406 25.4796 12.2187C25.2882 12.2968 25.1202 12.4101 24.9757 12.5585C24.8351 12.7031 24.7237 12.8808 24.6417 13.0917C24.5597 13.3027 24.5187 13.541 24.5187 13.8066C24.5187 14.037 24.5597 14.2558 24.6417 14.4628C24.7237 14.6699 24.8351 14.8515 24.9757 15.0078C25.1202 15.164 25.2882 15.287 25.4796 15.3769C25.6749 15.4667 25.882 15.5117 26.1007 15.5117C26.3195 15.5117 26.5245 15.4648 26.7159 15.371C26.9112 15.2734 27.0812 15.1464 27.2257 14.9902C27.3702 14.83 27.4835 14.6484 27.5655 14.4453C27.6515 14.2382 27.6945 14.0253 27.6945 13.8066ZM36.5948 16.9999H36.2081L35.587 16.1386C35.4347 16.2753 35.2726 16.4042 35.1007 16.5253C34.9327 16.6425 34.755 16.746 34.5675 16.8359C34.38 16.9218 34.1866 16.9902 33.9874 17.041C33.7921 17.0917 33.5929 17.1171 33.3898 17.1171C32.9484 17.1171 32.5323 17.0351 32.1417 16.871C31.755 16.7031 31.4152 16.4726 31.1222 16.1796C30.8331 15.8828 30.6046 15.5331 30.4366 15.1308C30.2687 14.7245 30.1847 14.2831 30.1847 13.8066C30.1847 13.3339 30.2687 12.8945 30.4366 12.4882C30.6046 12.082 30.8331 11.7304 31.1222 11.4335C31.4152 11.1367 31.755 10.9042 32.1417 10.7363C32.5323 10.5683 32.9484 10.4843 33.3898 10.4843C33.5304 10.4843 33.6749 10.496 33.8234 10.5195C33.9757 10.5429 34.1222 10.582 34.2628 10.6367C34.4073 10.6874 34.5421 10.7558 34.6671 10.8417C34.7921 10.9277 34.8976 11.0331 34.9835 11.1581V8.22845H36.5948V16.9999ZM34.9835 13.8066C34.9835 13.5878 34.9405 13.3769 34.8546 13.1738C34.7726 12.9667 34.6593 12.7851 34.5148 12.6288C34.3702 12.4687 34.2003 12.3417 34.005 12.248C33.8136 12.1503 33.6085 12.1015 33.3898 12.1015C33.171 12.1015 32.964 12.1406 32.7687 12.2187C32.5773 12.2968 32.4093 12.4101 32.2648 12.5585C32.1241 12.7031 32.0128 12.8808 31.9308 13.0917C31.8487 13.3027 31.8077 13.541 31.8077 13.8066C31.8077 14.037 31.8487 14.2558 31.9308 14.4628C32.0128 14.6699 32.1241 14.8515 32.2648 15.0078C32.4093 15.164 32.5773 15.287 32.7687 15.3769C32.964 15.4667 33.171 15.5117 33.3898 15.5117C33.6085 15.5117 33.8136 15.4648 34.005 15.371C34.2003 15.2734 34.3702 15.1464 34.5148 14.9902C34.6593 14.83 34.7726 14.6484 34.8546 14.4453C34.9405 14.2382 34.9835 14.0253 34.9835 13.8066ZM39.3312 19.3906V17.7792L40.2218 17.791C40.378 17.791 40.5284 17.7656 40.673 17.7148C40.8175 17.664 40.9503 17.5937 41.0714 17.5038C41.1964 17.414 41.3058 17.3066 41.3995 17.1816C41.4933 17.0605 41.5695 16.9277 41.628 16.7831C41.4523 16.8574 41.2726 16.9316 41.089 17.0058C40.9093 17.08 40.7277 17.1171 40.5441 17.1171C40.1573 17.1171 39.7941 17.0488 39.4542 16.912C39.1144 16.7753 38.8155 16.582 38.5577 16.332C38.3038 16.0781 38.1027 15.7714 37.9542 15.412C37.8097 15.0488 37.7374 14.6425 37.7374 14.1933V10.7245H39.3312V14.1933C39.3312 14.416 39.3624 14.6113 39.4249 14.7792C39.4913 14.9433 39.5792 15.082 39.6886 15.1953C39.798 15.3046 39.9249 15.3867 40.0695 15.4413C40.2179 15.496 40.3761 15.5234 40.5441 15.5234C40.7081 15.5234 40.8624 15.4863 41.007 15.412C41.1554 15.3339 41.2843 15.2324 41.3937 15.1074C41.503 14.9824 41.589 14.8417 41.6515 14.6855C41.714 14.5253 41.7452 14.3613 41.7452 14.1933V10.7245H43.3566V16.2089C43.3527 16.6503 43.2667 17.0644 43.0988 17.4511C42.9308 17.8378 42.7003 18.1757 42.4073 18.4648C42.1183 18.7538 41.7804 18.9824 41.3937 19.1503C41.007 19.3183 40.5929 19.4023 40.1515 19.4023L39.3312 19.3906ZM48.2902 13.6425C48.2902 14.1074 48.2023 14.5449 48.0265 14.955C47.8507 15.3613 47.6105 15.7167 47.3058 16.0214C47.005 16.3222 46.6495 16.5605 46.2394 16.7363C45.8331 16.912 45.3976 16.9999 44.9327 16.9999C44.6515 16.9999 44.3702 16.9648 44.089 16.8945V15.0898C44.214 15.164 44.3488 15.2206 44.4933 15.2597C44.6378 15.2988 44.7843 15.3183 44.9327 15.3183C45.1632 15.3183 45.38 15.2753 45.5831 15.1894C45.7902 15.0995 45.9698 14.9785 46.1222 14.8261C46.2745 14.6738 46.3937 14.496 46.4796 14.2929C46.5695 14.0898 46.6144 13.873 46.6144 13.6425V8.5976H48.2902V13.6425ZM49.2628 11.1171C49.2628 10.7695 49.3292 10.4433 49.462 10.1386C49.5948 9.83392 49.7745 9.5683 50.0011 9.34174C50.2316 9.11127 50.4991 8.92963 50.8038 8.79681C51.1085 8.664 51.4347 8.5976 51.7823 8.5976H55.6378V10.2792H51.7823C51.6652 10.2792 51.5558 10.3007 51.4542 10.3437C51.3527 10.3867 51.2628 10.4472 51.1847 10.5253C51.1105 10.5995 51.0519 10.6874 51.0089 10.789C50.9659 10.8906 50.9445 10.9999 50.9445 11.1171C50.9445 11.2343 50.9659 11.3456 51.0089 11.4511C51.0519 11.5527 51.1105 11.6425 51.1847 11.7206C51.2628 11.7949 51.3527 11.8535 51.4542 11.8964C51.5558 11.9394 51.6652 11.9609 51.7823 11.9609H53.464C53.8116 11.9609 54.1378 12.0273 54.4425 12.1601C54.7511 12.289 55.0187 12.4687 55.2452 12.6992C55.4757 12.9257 55.6554 13.1933 55.7843 13.5019C55.9171 13.8066 55.9835 14.1328 55.9835 14.4804C55.9835 14.8281 55.9171 15.1542 55.7843 15.4589C55.6554 15.7636 55.4757 16.0312 55.2452 16.2617C55.0187 16.4882 54.7511 16.6679 54.4425 16.8007C54.1378 16.9335 53.8116 16.9999 53.464 16.9999H49.7316V15.3183H53.464C53.5812 15.3183 53.6905 15.2968 53.7921 15.2538C53.8937 15.2109 53.9816 15.1523 54.0558 15.0781C54.1339 14.9999 54.1945 14.9101 54.2374 14.8085C54.2804 14.707 54.3019 14.5976 54.3019 14.4804C54.3019 14.3632 54.2804 14.2538 54.2374 14.1523C54.1945 14.0507 54.1339 13.9628 54.0558 13.8886C53.9816 13.8105 53.8937 13.7499 53.7921 13.707C53.6905 13.664 53.5812 13.6425 53.464 13.6425H51.7823C51.4347 13.6425 51.1085 13.5761 50.8038 13.4433C50.4991 13.3105 50.2316 13.1308 50.0011 12.9042C49.7745 12.6738 49.5948 12.4062 49.462 12.1015C49.3292 11.7929 49.2628 11.4648 49.2628 11.1171Z" fill="#DADDE8"/>
<path d="M60.5432 18.8017C60.4065 18.8017 60.3064 18.7602 60.2429 18.6772C60.1843 18.5942 60.155 18.4599 60.155 18.2744V18.0986C60.155 17.913 60.1819 17.7787 60.2356 17.6957C60.2942 17.6127 60.3894 17.5712 60.5213 17.5712H60.5286C60.6409 17.5712 60.7214 17.5322 60.7703 17.454C60.8191 17.3808 60.8435 17.2661 60.8435 17.1098V14.8906C60.8435 14.4072 60.9192 13.997 61.0706 13.6601C61.2219 13.3183 61.4417 13.0644 61.7297 12.8984C61.4465 12.7372 61.2268 12.4858 61.0706 12.144C60.9192 11.7973 60.8435 11.3847 60.8435 10.9062V8.68695C60.8435 8.51605 60.8191 8.39642 60.7703 8.32806C60.7214 8.2597 60.6287 8.22552 60.492 8.22552H60.4773C60.365 8.22552 60.282 8.18158 60.2283 8.09369C60.1795 8.0058 60.155 7.87396 60.155 7.69818V7.51508C60.155 7.33441 60.1843 7.20502 60.2429 7.12689C60.3064 7.04388 60.4065 7.00238 60.5432 7.00238H61.0559C61.3001 7.00238 61.5198 7.0683 61.7151 7.20013C61.9153 7.32709 62.0691 7.50531 62.1765 7.7348C62.2888 7.95941 62.345 8.2182 62.345 8.51117V10.7011C62.345 11.1308 62.3889 11.4604 62.4768 11.6899C62.5696 11.9145 62.7283 12.0732 62.9529 12.166C63.0847 12.2441 63.1799 12.332 63.2385 12.4296C63.302 12.5273 63.3338 12.6567 63.3338 12.8178V12.9789C63.3338 13.1401 63.302 13.2695 63.2385 13.3671C63.1799 13.4599 63.0847 13.5453 62.9529 13.6235C62.7283 13.7211 62.5696 13.8847 62.4768 14.1142C62.3889 14.3388 62.345 14.6684 62.345 15.103V17.2856C62.345 17.5786 62.2888 17.8398 62.1765 18.0693C62.0691 18.2988 61.9153 18.477 61.7151 18.6039C61.5198 18.7358 61.3001 18.8017 61.0559 18.8017H60.5432Z" fill="black"/>
<g filter="url(#filter0_d_224_1305)">
<path d="M56.6703 3.67692C56.4994 3.23845 56.203 2.86006 55.8184 2.58898C55.4337 2.31791 54.9776 2.16617 54.5072 2.15272C54.4968 2.15227 54.4872 2.15531 54.4769 2.15569C54.4633 2.15283 54.4494 2.15098 54.4355 2.15015C52.2408 2.08331 49.8576 3.43479 49.1826 5.68814C48.6708 5.11278 47.9167 4.78556 47.1595 4.90555C46.1936 5.05863 45.4146 5.89271 45.2549 6.89886C45.2465 6.95921 45.257 7.02065 45.2848 7.07485C45.3126 7.12906 45.3564 7.17341 45.4102 7.20189C45.5933 7.31193 45.7186 7.38938 45.9323 7.41397C46.3345 7.46027 46.7372 7.49907 47.1407 7.53037C47.9278 7.59141 48.7162 7.62479 49.5057 7.63051C51.1078 7.64269 52.7086 7.53854 54.2956 7.31889C54.8241 7.24576 55.3335 7.1735 55.7935 6.87615C56.1312 6.65138 56.4041 6.34221 56.5853 5.97934C56.9414 5.28703 56.962 4.40473 56.6703 3.67692Z" fill="#3F3D56"/>
<path d="M56.4438 3.81634C56.2847 3.42822 56.0136 3.0963 55.665 2.86294C55.3033 2.62611 54.8825 2.49513 54.4502 2.4848L54.4244 2.48751L54.4 2.48573C54.3921 2.48413 54.3841 2.4831 54.376 2.48265C53.6536 2.47286 52.9359 2.60059 52.2612 2.85904C50.9638 3.35023 49.7874 4.314 49.3383 5.71649L49.2743 5.91771L49.1307 5.76317C48.6581 5.25792 48.0025 5.00308 47.3602 5.07059C47.3283 5.07394 47.2964 5.07792 47.264 5.08318C46.3762 5.22123 45.6483 5.94648 45.4932 6.84705C45.4903 6.87866 45.4973 6.9104 45.5133 6.9378C45.5294 6.96521 45.5536 6.9869 45.5826 6.99984L45.5932 7.00618C45.763 7.10205 45.8654 7.16026 46.0445 7.17934C46.4347 7.22035 46.831 7.25451 47.2222 7.28113C47.9808 7.33314 48.7567 7.36034 49.5274 7.36198C50.8905 7.36501 52.2526 7.28556 53.6062 7.12405C53.8044 7.10073 54.0021 7.07561 54.1991 7.04868C54.7064 6.97983 55.186 6.91388 55.619 6.64653C55.9288 6.45028 56.1823 6.17697 56.3547 5.85335C56.5172 5.54087 56.6094 5.19661 56.6248 4.84472C56.6402 4.49283 56.5784 4.14183 56.4438 3.81634Z" fill="white"/>
<path d="M53.6061 7.12401C52.2526 7.28551 50.8905 7.36496 49.5274 7.36193C48.7567 7.36029 47.9808 7.33309 47.2222 7.28109C46.831 7.25447 46.4347 7.22031 46.0445 7.1793C45.8654 7.16022 45.7629 7.10201 45.5931 7.00613L45.5825 6.99979C45.5535 6.98685 45.5293 6.96516 45.5133 6.93776C45.4973 6.91035 45.4902 6.87861 45.4932 6.847C45.6483 5.94644 46.3762 5.22119 47.2639 5.08314C47.2963 5.07787 47.3282 5.0739 47.3602 5.07054C48.0025 5.00303 48.6581 5.25787 49.1307 5.76312L49.2743 5.91767L49.3383 5.71644C49.7874 4.31395 50.9637 3.35018 52.2612 2.85899C52.5559 3.07408 52.7685 3.42894 52.7065 3.7853C52.632 4.21755 52.19 4.52873 52.1564 4.966C52.1256 5.36507 52.4441 5.69946 52.7612 5.94328C53.0782 6.18649 53.4408 6.42615 53.5652 6.8058C53.5986 6.90838 53.6125 7.01631 53.6061 7.12401Z" fill="#0C81D6"/>
<path d="M55.3623 5.34538L55.8138 4.7896L55.2566 4.33983L55.3943 4.17042L56.1213 4.75728L55.5322 5.48246L55.3623 5.34538Z" fill="#E6E6E6"/>
<path d="M53.6439 5.52085L53.0862 5.07114L53.5377 4.51536L53.3678 4.37828L52.7792 5.1034L53.5062 5.69026L53.6439 5.52085Z" fill="#E6E6E6"/>
<path d="M55.3521 5.24797L55.8036 4.69219L55.2464 4.24241L55.384 4.07301L56.1111 4.65987L55.5219 5.38505L55.3521 5.24797Z" fill="#0C81D6"/>
<path d="M53.8629 4.93254L54.0679 4.911L54.0463 4.70599L53.8413 4.72754L53.8629 4.93254ZM54.8704 4.61937L54.6654 4.64092L54.687 4.84593L54.892 4.82438L54.8704 4.61937ZM54.2749 4.88924L54.4799 4.86769L54.4584 4.66268L54.2534 4.68423L54.2749 4.88924Z" fill="#0C81D6"/>
<path d="M53.6336 5.42344L53.076 4.97373L53.5274 4.41794L53.3576 4.28086L52.769 5.00599L53.496 5.59284L53.6336 5.42344Z" fill="#0C81D6"/>
</g>
<g filter="url(#filter1_d_224_1305)">
<path d="M6.32624 21.7115C7.05869 21.7115 7.65247 21.1045 7.65247 20.3557C7.65247 19.6069 7.05869 18.9999 6.32624 18.9999C5.59378 18.9999 5 19.6069 5 20.3557C5 21.1045 5.59378 21.7115 6.32624 21.7115Z" fill="#3F3D56"/>
<path d="M10.9077 21.7115C11.6402 21.7115 12.234 21.1045 12.234 20.3557C12.234 19.6069 11.6402 18.9999 10.9077 18.9999C10.1753 18.9999 9.58151 19.6069 9.58151 20.3557C9.58151 21.1045 10.1753 21.7115 10.9077 21.7115Z" fill="#3F3D56"/>
<path d="M15.4893 21.7115C16.2218 21.7115 16.8155 21.1045 16.8155 20.3557C16.8155 19.6069 16.2218 18.9999 15.4893 18.9999C14.7568 18.9999 14.1631 19.6069 14.1631 20.3557C14.1631 21.1045 14.7568 21.7115 15.4893 21.7115Z" fill="#3F3D56"/>
<path d="M20.7135 21.4273C20.6926 21.4273 20.6719 21.4232 20.6527 21.4151C20.6334 21.407 20.616 21.3951 20.6014 21.3801L19.7065 20.4654C19.6778 20.4361 19.6618 20.3967 19.6618 20.3557C19.6618 20.3147 19.6778 20.2753 19.7065 20.246L20.6014 19.3313C20.6306 19.3021 20.6701 19.2855 20.7115 19.2852C20.7528 19.285 20.7926 19.301 20.8221 19.3299C20.8517 19.3588 20.8686 19.3982 20.8693 19.4396C20.8699 19.4809 20.8542 19.5208 20.8256 19.5507L20.038 20.3557L20.8256 21.1608C20.8472 21.1829 20.8618 21.2108 20.8675 21.2412C20.8733 21.2715 20.87 21.3028 20.858 21.3313C20.8461 21.3597 20.826 21.384 20.8003 21.4011C20.7745 21.4182 20.7444 21.4273 20.7135 21.4273Z" fill="black"/>
<path d="M22.2172 21.4273C22.1863 21.4273 22.1562 21.4182 22.1305 21.4011C22.1047 21.384 22.0846 21.3597 22.0727 21.3313C22.0607 21.3028 22.0574 21.2715 22.0632 21.2412C22.0689 21.2108 22.0835 21.1829 22.1051 21.1608L22.8926 20.3557L22.1051 19.5507C22.0765 19.5208 22.0608 19.4809 22.0614 19.4396C22.0621 19.3982 22.079 19.3588 22.1086 19.3299C22.1381 19.301 22.1779 19.285 22.2192 19.2852C22.2606 19.2855 22.3001 19.3021 22.3293 19.3313L23.2241 20.246C23.2528 20.2753 23.2689 20.3147 23.2689 20.3557C23.2689 20.3967 23.2528 20.4361 23.2241 20.4654L22.3293 21.3801C22.3147 21.3951 22.2973 21.407 22.278 21.4151C22.2588 21.4232 22.2381 21.4273 22.2172 21.4273Z" fill="#969696"/>
</g>
<defs>
<filter id="filter0_d_224_1305" x="45.2521" y="1.14777" width="18.6203" height="9.4837" filterUnits="userSpaceOnUse" color-interpolation-filters="sRGB">
<feFlood flood-opacity="0" result="BackgroundImageFix"/>
<feColorMatrix in="SourceAlpha" type="matrix" values="0 0 0 0 0 0 0 0 0 0 0 0 0 0 0 0 0 0 127 0" result="hardAlpha"/>
<feOffset dx="5" dy="1"/>
<feGaussianBlur stdDeviation="1"/>
<feComposite in2="hardAlpha" operator="out"/>
<feColorMatrix type="matrix" values="0 0 0 0 0 0 0 0 0 0 0 0 0 0 0 0 0 0 0.15 0"/>
<feBlend mode="normal" in2="BackgroundImageFix" result="effect1_dropShadow_224_1305"/>
<feBlend mode="normal" in="SourceGraphic" in2="effect1_dropShadow_224_1305" result="shape"/>
</filter>
<filter id="filter1_d_224_1305" x="3" y="16.9999" width="20.2689" height="4.71161" filterUnits="userSpaceOnUse" color-interpolation-filters="sRGB">
<feFlood flood-opacity="0" result="BackgroundImageFix"/>
<feColorMatrix in="SourceAlpha" type="matrix" values="0 0 0 0 0 0 0 0 0 0 0 0 0 0 0 0 0 0 127 0" result="hardAlpha"/>
<feOffset dx="-1" dy="-1"/>
<feGaussianBlur stdDeviation="0.5"/>
<feComposite in2="hardAlpha" operator="out"/>
<feColorMatrix type="matrix" values="0 0 0 0 0 0 0 0 0 0 0 0 0 0 0 0 0 0 0.15 0"/>
<feBlend mode="normal" in2="BackgroundImageFix" result="effect1_dropShadow_224_1305"/>
<feBlend mode="normal" in="SourceGraphic" in2="effect1_dropShadow_224_1305" result="shape"/>
</filter>
</defs>
</svg>
