<svg width="53" height="52" viewBox="0 0 53 52" fill="none" xmlns="http://www.w3.org/2000/svg">
<path d="M49.5257 24.6009C49.3924 24.5911 49.2381 24.5846 49.0821 24.5846C48.2956 24.5846 47.5432 24.7309 46.8509 24.9974L46.8932 24.9827C46.6901 25.064 46.3651 25.064 46.3374 25.3224C46.4496 25.4296 46.4658 25.6067 46.5601 25.7562C46.7502 26.078 46.9842 26.351 47.2572 26.5785L47.2621 26.5834C47.5464 26.806 47.8308 27.0221 48.1298 27.2122C48.658 27.5372 49.2576 27.7306 49.7743 28.0572C50.0685 28.2474 50.3691 28.4895 50.6681 28.6926C50.8159 28.7934 50.9118 28.977 51.102 29.042V29.0014C51.0093 28.8795 50.9801 28.7024 50.8891 28.5675C50.7526 28.431 50.6177 28.3091 50.4828 28.1759C50.0798 27.6477 49.6134 27.196 49.0902 26.819L49.0707 26.806C48.6368 26.5102 47.6862 26.0959 47.5075 25.597L47.4814 25.5677C47.8357 25.5174 48.151 25.4426 48.4548 25.3419L48.4158 25.3532C48.8773 25.2314 49.2998 25.2574 49.776 25.1387C49.9905 25.0835 50.2082 25.0169 50.4259 24.9486V24.8267C50.1822 24.583 50.0002 24.2515 49.7483 24.024C49.0837 23.439 48.3508 22.8897 47.5789 22.3957L47.5058 22.3519C47.0801 22.0805 46.539 21.905 46.0905 21.6742C45.928 21.593 45.6566 21.5524 45.5623 21.4159C45.3511 21.1152 45.1642 20.7707 45.0163 20.4067L45.0033 20.371C44.6047 19.5975 44.2342 18.8105 43.8918 18.0099C43.6578 17.3875 43.4254 16.8772 43.1638 16.3832L43.2012 16.4596C41.924 14.3162 40.1446 12.5937 38.0207 11.4189L37.9508 11.3831C37.4487 11.1345 36.8653 10.9411 36.2527 10.8322L36.2121 10.8257C35.8725 10.8095 35.5345 10.7851 35.1965 10.7705C34.9592 10.6177 34.7545 10.4617 34.5627 10.2895L34.5676 10.2944C33.7957 9.80687 31.7986 8.75062 31.2298 10.1481C30.8642 11.0289 31.7726 11.8982 32.0862 12.3451C32.3365 12.6425 32.564 12.9756 32.7606 13.3282L32.7768 13.3607C32.8727 13.5964 32.8987 13.8385 32.9946 14.0839C33.2302 14.8184 33.4691 15.4212 33.7405 16.0046L33.6982 15.9039C33.8591 16.2272 34.0265 16.5019 34.2133 16.7619L34.2003 16.7424C34.3092 16.8902 34.4961 16.9601 34.54 17.2039C34.4002 17.498 34.2913 17.8392 34.2312 18.1951L34.228 18.2179C34.0525 18.7574 33.9501 19.3797 33.9501 20.0249C33.9501 21.034 34.1987 21.9846 34.6375 22.8199L34.6212 22.7874C34.839 23.1237 35.3557 23.8712 36.048 23.5852C36.6573 23.3415 36.5224 22.5696 36.698 21.8904C36.7386 21.7279 36.7126 21.6206 36.7954 21.5101V21.541C36.9856 21.9229 37.1773 22.2869 37.3512 22.6687C37.842 23.3756 38.4253 23.9769 39.0916 24.4725L39.1127 24.4871C39.4377 24.7309 39.6961 25.1534 40.1023 25.3029V25.2622H40.0714C39.9788 25.1615 39.8764 25.0721 39.7643 24.9957L39.7578 24.9925C39.506 24.7455 39.2719 24.479 39.0607 24.1979L39.0477 24.18C38.5179 23.465 38.0142 22.6557 37.5771 21.8059L37.5299 21.7067C37.3073 21.281 37.1204 20.8211 36.9417 20.4002C36.8605 20.2377 36.8605 19.994 36.724 19.9127C36.4835 20.1825 36.2673 20.4831 36.087 20.8065L36.0739 20.8325C35.866 21.4386 35.7295 22.139 35.6937 22.8654V22.8832C35.6385 22.8979 35.6661 22.8832 35.6385 22.9125C35.2046 22.8069 35.0551 22.3567 34.8926 21.9781C34.6716 21.3834 34.5432 20.6944 34.5432 19.9777C34.5432 19.3992 34.6261 18.8402 34.7821 18.3121L34.7723 18.3544C34.8682 18.07 35.2745 17.173 35.1119 16.9C35.0275 16.6416 34.7593 16.4937 34.6098 16.2841C34.4327 16.0339 34.2702 15.7495 34.1353 15.4489L34.1223 15.4164C33.7973 14.6575 33.6348 13.8157 33.2822 13.0569C33.0693 12.6604 32.8451 12.3191 32.5932 12.0006L32.6046 12.0152C32.3365 11.7049 32.0895 11.3587 31.875 10.9915L31.8571 10.959C31.7905 10.8111 31.6946 10.5657 31.8018 10.4032C31.8213 10.309 31.8961 10.2359 31.992 10.2212C32.1707 10.075 32.6745 10.2651 32.85 10.3464C33.3651 10.5414 33.8087 10.7705 34.2198 11.0402L34.1938 11.024C34.3839 11.1572 34.5903 11.4156 34.8341 11.4822H35.1185C35.5523 11.5781 36.0431 11.5115 36.4493 11.6301C37.1952 11.882 37.8403 12.1972 38.4367 12.584L38.4026 12.5629C40.1966 13.7215 41.6331 15.288 42.6048 17.1389L42.6373 17.2055C42.7998 17.5175 42.8713 17.8051 43.0192 18.1301C43.3036 18.7996 43.6546 19.4772 43.9438 20.124C44.2184 20.8195 44.5434 21.4207 44.9302 21.9749L44.9107 21.9456C45.1138 22.23 45.9296 22.3779 46.2952 22.5257C46.6803 22.6606 46.9891 22.789 47.2881 22.9336L47.228 22.9076C47.6943 23.192 48.1493 23.517 48.5881 23.829C48.8107 23.9834 49.4883 24.323 49.5289 24.596L49.5257 24.6009ZM30.4742 36.4845C30.4742 36.5089 30.4758 36.5365 30.4758 36.5641C30.4758 37.4709 30.0712 38.2817 29.431 38.8277L29.4261 38.831C28.7241 39.403 27.819 39.7507 26.8326 39.7507C26.7562 39.7507 26.6798 39.7491 26.6051 39.7442H26.6148C25.4139 39.728 24.309 39.338 23.4038 38.6864L23.4201 38.6977L23.9011 37.7309C24.5982 38.1209 25.427 38.363 26.3077 38.3971H26.3175C26.3613 38.4004 26.4117 38.402 26.4637 38.402C27.0032 38.402 27.5053 38.233 27.9165 37.9454L27.9083 37.9502C28.2804 37.6675 28.5177 37.2255 28.5177 36.7282C28.5177 36.7185 28.5177 36.7104 28.5177 36.7006V36.7022C28.5177 36.0327 28.0513 35.464 27.2015 34.9862C26.4133 34.554 24.8403 33.6521 24.8403 33.6521C24.0636 33.1711 23.555 32.3245 23.555 31.3592C23.555 31.3251 23.555 31.291 23.5566 31.2569V31.2617C23.555 31.2309 23.555 31.1951 23.555 31.1594C23.555 30.3225 23.9238 29.5717 24.5072 29.0615L24.5105 29.0582C25.1312 28.5317 25.9421 28.2116 26.8277 28.2116C26.8846 28.2116 26.9398 28.2132 26.9951 28.2149H26.9869C27.0016 28.2149 27.0195 28.2149 27.0373 28.2149C28.0757 28.2149 29.0426 28.5252 29.8486 29.0599L29.8291 29.0485L29.3968 30.0154C28.7615 29.7294 28.0205 29.5571 27.2404 29.549H27.2372C27.1982 29.5457 27.1543 29.5441 27.1088 29.5441C26.6538 29.5441 26.2346 29.7034 25.9063 29.9699L25.9096 29.9666C25.6024 30.2217 25.4074 30.6036 25.4058 31.031C25.4058 31.6972 25.8803 32.2692 26.7578 32.7567C27.5557 33.1939 29.1677 34.1169 29.1677 34.1169C29.9607 34.5832 30.4856 35.4315 30.4856 36.4032C30.4856 36.4325 30.4856 36.4634 30.484 36.4926V36.4877L30.4742 36.4845ZM33.8412 37.3474C33.3976 36.4617 33.1392 35.4185 33.1392 34.3151C33.1392 34.1412 33.1457 33.969 33.1587 33.8L33.1571 33.8227C33.1571 30.9942 34.0167 29.5793 35.736 29.5782C35.7782 29.575 35.8286 29.5734 35.8806 29.5734C36.6525 29.5734 37.3301 29.9764 37.7152 30.5841L37.7201 30.5922C38.1604 31.473 38.4188 32.513 38.4188 33.6115C38.4188 33.7805 38.4123 33.9479 38.401 34.1136L38.4026 34.0909C38.4026 36.9422 37.5429 38.369 35.8237 38.3711C35.7798 38.3744 35.7295 38.376 35.6791 38.376C34.9072 38.376 34.228 37.973 33.8428 37.3652L33.838 37.3571L33.8412 37.3474ZM40.5265 39.8694L38.4627 38.8537C38.6512 38.6961 38.8202 38.5304 38.9762 38.3516L38.9811 38.3467C39.8147 37.2222 40.3152 35.8069 40.3152 34.2761C40.3152 34.099 40.3087 33.9235 40.2957 33.7496L40.2973 33.7724C40.2973 30.0565 38.8386 28.1975 35.9212 28.1954C35.8562 28.1921 35.7798 28.1905 35.7035 28.1905C34.4571 28.1905 33.3375 28.7381 32.5753 29.6075L32.5721 29.6124C31.7417 30.7369 31.2428 32.1506 31.2428 33.6814C31.2428 33.8536 31.2493 34.0242 31.2623 34.1932L31.2607 34.1705C31.2461 34.3346 31.238 34.5264 31.238 34.7197C31.238 36.14 31.6832 37.4562 32.4405 38.5369L32.4258 38.5157C33.1555 39.2925 34.1906 39.7767 35.3362 39.7767C35.4435 39.7767 35.5491 39.7719 35.6531 39.7637L35.6385 39.7654C35.6531 39.7654 35.6726 39.7654 35.6904 39.7654C36.1958 39.7654 36.685 39.6922 37.1481 39.5574L37.1123 39.5671L39.8033 41.1352L40.5346 39.8726L40.5265 39.8694ZM47.2669 39.5947H41.9256V28.366H43.7228V38.2151H47.2669V39.5947ZM22.2403 31.3105C21.774 34.697 20.7063 37.7536 19.1447 40.4917L19.2097 40.3666C18.5841 41.5707 17.4011 42.4092 16.0117 42.5441L15.9955 42.5457C15.5746 42.523 15.183 42.4222 14.8271 42.2581L14.8466 42.2662V41.2636C15.0692 41.2977 15.326 41.3172 15.5876 41.3172C15.6022 41.3172 15.6168 41.3172 15.6331 41.3172C15.6591 41.3189 15.6867 41.3189 15.716 41.3189C16.1856 41.3189 16.6162 41.1482 16.9477 40.8639L16.9445 40.8655C17.302 40.5714 17.5311 40.1326 17.5441 39.6386C17.458 38.9269 17.2938 38.2769 17.0582 37.6642L17.0777 37.7195L15.0188 31.3105H16.8665L18.3436 36.1026C18.6068 36.7786 18.7596 37.5619 18.7596 38.3792C18.7596 38.3809 18.7596 38.3825 18.7596 38.3825C19.5428 36.3317 20.1376 33.9397 20.4398 31.4584L20.4545 31.3089L22.2403 31.3105ZM14.0828 39.5947H12.2011C12.148 36.6037 11.9655 33.6185 11.6535 30.6394H11.6372L8.77395 39.5947H7.34233L4.49858 30.6394H4.47908C4.25699 33.6196 4.12483 36.6047 4.08258 39.5947H2.36658C2.47816 35.6027 2.75549 31.8592 3.19858 28.3644H5.5337L8.2442 36.6177H8.26045L10.9953 28.3644H13.2183C13.7102 32.4561 14 36.1996 14.0877 39.5947H14.0828ZM35.6791 12.8034C35.6758 12.8034 35.671 12.8034 35.6661 12.8034C35.4727 12.8034 35.2858 12.8277 35.1071 12.8732L35.1233 12.87V12.896H35.151C35.2907 13.104 35.4337 13.2844 35.5881 13.4534L35.5848 13.4501C35.6937 13.6679 35.788 13.884 35.8968 14.1001L35.9244 14.0692C36.1016 13.9295 36.2137 13.715 36.2137 13.4745C36.2137 13.4452 36.2121 13.4176 36.2088 13.3884V13.3916C36.1276 13.2957 36.1162 13.2015 36.0463 13.1072C35.9651 12.9707 35.7912 12.9041 35.6807 12.7969L35.6791 12.8034Z" fill="black"/>
</svg>
