<svg width="53" height="52" viewBox="0 0 53 52" fill="none" xmlns="http://www.w3.org/2000/svg">
<g clip-path="url(#clip0_24_259)">
<path d="M26.7334 13.0087C26.6576 13.0087 26.5687 13.0087 26.4821 13.0087C22.9937 13.0087 19.5921 13.3878 16.3204 14.1072L16.6324 14.0487C13.5081 14.7052 10.7434 15.6758 8.16073 16.9585L8.3644 16.8675C6.1739 17.9227 4.31923 19.3353 2.79607 21.0492L2.7809 21.0665C1.54373 22.4185 0.772398 24.2147 0.733398 26.1885V26.1972C0.774565 28.1775 1.54373 29.9693 2.78307 31.3257L2.77873 31.3192C4.31707 33.0503 6.17173 34.463 8.25823 35.4727L8.36223 35.5182C10.7412 36.7077 13.5059 37.6805 16.4006 38.2958L16.6302 38.337C19.5899 38.9978 22.9916 39.377 26.4799 39.377H26.7464H26.7334H26.9847C30.4731 39.377 33.8747 38.9978 37.1464 38.2785L36.8344 38.337C39.9587 37.6805 42.7234 36.7098 45.3061 35.4272L45.1024 35.5182C47.2929 34.463 49.1476 33.0503 50.6707 31.3365L50.6859 31.3192C51.9231 29.9672 52.6944 28.171 52.7334 26.1972V26.1885C52.6944 24.206 51.9231 22.4098 50.6816 21.0513L50.6859 21.0578C49.1476 19.3267 47.2929 17.914 45.2064 16.9043L45.1024 16.8588C42.7234 15.6693 39.9587 14.6965 37.0641 14.0812L36.8344 14.04C33.8747 13.3792 30.4731 13 26.9847 13C26.8959 13 26.8071 13 26.7182 13H26.7312L26.7334 13.0087ZM19.9734 28.7473C19.6896 29.0052 19.3667 29.2262 19.0157 29.3995L18.9919 29.4103C18.6864 29.5577 18.3246 29.6942 17.9476 29.7982L17.9021 29.809C17.5294 29.9433 17.0982 30.0235 16.6476 30.0235C16.6302 30.0235 16.6129 30.0235 16.5956 30.0235H12.3251L11.6317 34.2767H8.49657L11.2699 19.8142H17.2781C17.3171 19.8142 17.3647 19.812 17.4124 19.812C18.1924 19.812 18.9421 19.9485 19.6354 20.1998L19.5899 20.1847C20.2291 20.4187 20.7729 20.7827 21.2106 21.2442L21.2127 21.2463C21.5919 21.7295 21.8627 22.3145 21.9797 22.9558L21.9841 22.9797C22.0382 23.296 22.0707 23.66 22.0707 24.0327C22.0707 24.4573 22.0296 24.8712 21.9516 25.2742L21.9581 25.233C21.8801 25.6208 21.7782 25.9588 21.6504 26.2838L21.6656 26.2427C21.5413 26.5619 21.4085 26.8631 21.2669 27.1462C21.0907 27.4293 20.8957 27.7131 20.6819 27.9977C20.4739 28.2772 20.2464 28.522 19.9951 28.7408L19.9886 28.7452L19.9734 28.7473ZM29.0127 30.0235L30.2369 23.9092C30.2889 23.6773 30.3192 23.413 30.3192 23.14C30.3192 23.0837 30.3171 23.0273 30.3149 22.971V22.9797C30.3127 22.7435 30.2217 22.529 30.0744 22.3665C29.9249 22.2365 29.7472 22.1368 29.5522 22.0762L29.5414 22.074C29.2706 21.9873 28.9586 21.9397 28.6357 21.9397C28.5989 21.9397 28.5621 21.9397 28.5252 21.9418H28.5296H26.0899L24.4952 30.0235H21.4121L24.1854 15.9835H27.2686L26.5254 19.812H29.2987C29.3464 19.812 29.4006 19.8098 29.4569 19.8098C30.1741 19.8098 30.8717 19.8987 31.5391 20.0633L31.4806 20.0503C32.0201 20.1695 32.4902 20.423 32.8694 20.7697L32.8672 20.7675C33.2052 21.034 33.4457 21.4132 33.5302 21.8465L33.5324 21.8573C33.5627 22.0502 33.5801 22.2712 33.5801 22.4965C33.5801 22.8648 33.5346 23.2223 33.4457 23.5625L33.4522 23.5322L32.1761 30.0192L29.0127 30.0235ZM46.1337 25.2915C46.0471 25.6837 45.9561 26.0022 45.8477 26.3163L45.8672 26.2492C45.7502 26.5937 45.6072 26.8927 45.4317 27.17L45.4426 27.1527C45.2931 27.4885 45.1154 27.7767 44.9052 28.0367L44.9117 28.028C44.6994 28.2923 44.4719 28.5263 44.2249 28.7408L44.2184 28.7473C43.9346 29.0052 43.6117 29.2262 43.2607 29.3995L43.2369 29.4103C42.9314 29.5577 42.5696 29.6942 42.1926 29.7982L42.1471 29.809C41.7744 29.9433 41.3432 30.0235 40.8926 30.0235C40.8752 30.0235 40.8579 30.0235 40.8406 30.0235H36.5701L35.8269 34.268H32.7437L35.5171 19.8055H41.4732C41.5209 19.8033 41.5751 19.8033 41.6314 19.8033C42.4222 19.8033 43.1827 19.9398 43.8869 20.1933L43.8392 20.1782C44.4611 20.4035 44.9854 20.7675 45.3949 21.2355L45.3992 21.2398C45.8109 21.7208 46.1034 22.3167 46.2182 22.971L46.2226 22.9927C46.2702 23.2765 46.2984 23.6015 46.2984 23.9352C46.2984 24.414 46.2421 24.8777 46.1359 25.324L46.1446 25.2828L46.1337 25.2915ZM40.2837 21.9397H38.1647L37.0532 27.8958H38.9079H39.0206C39.5622 27.8958 40.0952 27.846 40.6109 27.7528L40.5567 27.7615C40.9987 27.6835 41.3931 27.5253 41.7397 27.3022L41.7267 27.3087C42.0214 27.0443 42.2684 26.7388 42.4612 26.3965L42.4699 26.3792C42.6931 25.9718 42.8599 25.4973 42.9444 24.9968L42.9487 24.9708C43.0159 24.6913 43.0527 24.3685 43.0527 24.037C43.0527 23.8767 43.0441 23.7185 43.0267 23.5647L43.0289 23.5842C42.9986 23.2418 42.8729 22.932 42.6801 22.6763L42.6822 22.6807C42.4309 22.4467 42.1297 22.2647 41.7961 22.1542L41.7787 22.1498C41.3757 22.0155 40.9142 21.9397 40.4332 21.9397C40.3834 21.9397 40.3336 21.9397 40.2859 21.9418H40.2924L40.2837 21.9397ZM16.0387 21.9397H13.9197L12.8039 27.8958H14.6629H14.7756C15.3172 27.8958 15.8502 27.846 16.3659 27.7528L16.3117 27.7615C16.7537 27.6835 17.1481 27.5253 17.4947 27.3022L17.4817 27.3087C17.7764 27.0443 18.0234 26.7388 18.2162 26.3965L18.2249 26.3792C18.4481 25.9718 18.6149 25.4973 18.6994 24.9968L18.7037 24.9708C18.7709 24.6913 18.8077 24.3685 18.8077 24.037C18.8077 23.8767 18.7991 23.7185 18.7817 23.5647L18.7839 23.5842C18.7536 23.2418 18.6279 22.932 18.4351 22.6763L18.4372 22.6807C18.1859 22.4467 17.8847 22.2647 17.5511 22.1542L17.5337 22.1498C17.1307 22.0155 16.6692 21.9397 16.1882 21.9397C16.1384 21.9397 16.0886 21.9397 16.0409 21.9418H16.0474L16.0387 21.9397Z" fill="black"/>
</g>
<defs>
<clipPath id="clip0_24_259">
<rect width="52" height="52" fill="white" transform="translate(0.733398)"/>
</clipPath>
</defs>
</svg>
