<svg width="135" height="102" viewBox="0 0 135 102" fill="none" xmlns="http://www.w3.org/2000/svg">
<path d="M73.4516 10.258C75.212 10.258 76.6391 8.83091 76.6391 7.07052C76.6391 5.31013 75.212 3.88306 73.4516 3.88306C71.6912 3.88306 70.2642 5.31013 70.2642 7.07052C70.2642 8.83091 71.6912 10.258 73.4516 10.258Z" fill="#2D6CDF"/>
<path d="M73.1356 8.28643C73.0639 8.28655 72.9941 8.26335 72.9367 8.22033L72.9332 8.21767L72.1841 7.64463C72.0382 7.53277 72.0106 7.32381 72.1224 7.1779C72.2343 7.03199 72.4433 7.00438 72.5892 7.11624L73.0744 7.48832L74.2209 5.9925C74.3327 5.84665 74.5416 5.81906 74.6875 5.93087L74.6804 5.94083L74.6877 5.93095C74.8334 6.04291 74.861 6.25167 74.7493 6.39758L73.4007 8.15621C73.3374 8.23834 73.2396 8.28633 73.1359 8.28603L73.1356 8.28643Z" fill="white"/>
<path d="M73.4516 31.8062C75.212 31.8062 76.6391 30.3791 76.6391 28.6187C76.6391 26.8584 75.212 25.4313 73.4516 25.4313C71.6912 25.4313 70.2642 26.8584 70.2642 28.6187C70.2642 30.3791 71.6912 31.8062 73.4516 31.8062Z" fill="#2D6CDF"/>
<path d="M73.1356 29.8347C73.0639 29.8348 72.9941 29.8116 72.9367 29.7686L72.9332 29.7659L72.1841 29.1929C72.0382 29.081 72.0106 28.8721 72.1224 28.7262C72.2343 28.5803 72.4433 28.5527 72.5892 28.6645L73.0744 29.0366L74.2209 27.5408C74.3327 27.3949 74.5416 27.3673 74.6875 27.4792L74.6804 27.4891L74.6877 27.4792C74.8334 27.5912 74.861 27.8 74.7493 27.9459L73.4007 29.7045C73.3374 29.7866 73.2396 29.8346 73.1359 29.8343L73.1356 29.8347Z" fill="white"/>
<path d="M81.4565 62.1126C81.4174 61.1143 82.195 60.2733 83.1933 60.2342C83.2997 60.23 83.4063 60.2353 83.5118 60.2499L86.4311 54.5223L88.0807 57.4273L85.0556 62.4209C84.8525 63.4046 83.8904 64.0375 82.9066 63.8345C82.0835 63.6645 81.484 62.9527 81.4565 62.1126Z" fill="#FFB7B7"/>
<path d="M95.0664 98.1782L92.7754 98.1781L91.6855 89.3414L95.0668 89.3416L95.0664 98.1782Z" fill="#FFB7B7"/>
<path d="M95.6508 100.399L88.2637 100.399V100.305C88.2638 98.7174 89.551 97.4301 91.1389 97.4301H91.1391L95.6509 97.4302L95.6508 100.399Z" fill="#2F2E41"/>
<path d="M107.486 98.1782L105.195 98.1781L104.105 89.3414L107.486 89.3416L107.486 98.1782Z" fill="#FFB7B7"/>
<path d="M108.07 100.399L100.683 100.399V100.305C100.683 98.7174 101.97 97.4301 103.558 97.4301H103.559L108.07 97.4302L108.07 100.399Z" fill="#2F2E41"/>
<path d="M84.9752 57.1279L83.9751 58.7948C83.9751 58.7948 85.642 58.7948 85.9753 61.2951L87.3088 59.6282L84.9752 57.1279Z" fill="#E5E5E5"/>
<path d="M102.478 53.6274C102.478 53.6274 105.145 60.6283 105.645 64.9622C106.145 69.2961 106.978 80.7975 106.978 80.7975L108.645 95.6327L103.978 96.2994L101.978 81.2975L97.477 66.4624L96.4768 81.2975L95.6434 94.7992L91.3095 94.9659L90.9761 80.9641L89.1426 63.1286L90.1427 54.6275L102.478 53.6274Z" fill="#2F2E41"/>
<path d="M99.2271 32.3749L100.894 33.5416L103.061 55.3777L89.5593 55.711L91.393 40.5426L93.0597 36.2087L94.2629 34.618L99.2271 32.3749Z" fill="#E5E5E5"/>
<path d="M99.5605 48.0434L100.071 32.9652C100.071 32.9652 101.061 33.0416 101.394 33.5416C101.727 34.0417 107.228 35.0418 107.228 35.0418L106.228 50.5437C106.228 50.5437 110.395 62.8786 108.895 63.5454C107.395 64.2121 104.728 64.0454 104.728 64.0454L99.5605 48.0434Z" fill="#2F2E41"/>
<path d="M91.4762 46.1265L93.2445 35.9644L89.3093 38.6256L90.3094 45.9599L89.476 50.9605C89.476 50.9605 86.3089 64.7955 87.309 65.2956C88.3092 65.7957 89.476 65.2956 89.476 65.2956L91.4762 51.2938V46.1265Z" fill="#2F2E41"/>
<path d="M90.4759 38.2922L89.3091 38.6256L88.809 45.2931L87.9756 51.1272L83.9751 58.2947C83.9751 58.2947 85.9753 56.9612 86.8088 60.795L91.2145 53.1246L90.4759 38.2922Z" fill="#2F2E41"/>
<path d="M99.5427 60.7457C99.6981 59.7588 100.624 59.0847 101.611 59.2402C101.716 59.2567 101.82 59.2826 101.921 59.3174L105.896 54.2655L106.95 57.4354L103.013 61.7468C102.623 62.6724 101.557 63.1065 100.631 62.7163C99.8565 62.3898 99.4066 61.5751 99.5427 60.7457Z" fill="#FFB7B7"/>
<path d="M106.311 58.9614L104.811 60.795L102.811 57.2946L103.644 55.7944L106.311 58.9614Z" fill="#E5E5E5"/>
<path d="M105.978 35.6252L107.311 34.9584C107.311 34.9584 108.311 36.2919 108.478 37.4588C108.645 38.6256 109.478 40.1257 109.478 40.9592C109.478 41.7926 111.812 49.6269 111.812 49.6269L106.478 60.4616C106.478 60.4616 105.311 56.4611 102.811 56.1277L106.978 50.2937L104.644 46.1265L105.978 35.6252Z" fill="#2F2E41"/>
<path d="M134.832 100.502H70.692C70.599 100.502 70.5237 100.426 70.5237 100.333C70.5237 100.24 70.599 100.165 70.692 100.165H134.832C134.925 100.165 135 100.24 135 100.333C135 100.426 134.925 100.502 134.832 100.502Z" fill="#CBCBCB"/>
<path d="M61.4462 35.6893H0V21.5483H61.4462V35.6893Z" fill="white"/>
<path d="M8.86812 26.2239C8.53746 26.2239 8.26941 26.492 8.26941 26.8226C8.26941 27.1533 8.53746 27.4214 8.86812 27.4214H52.5807C52.9113 27.4214 53.1794 27.1533 53.1794 26.8226C53.1794 26.492 52.9113 26.2239 52.5807 26.2239H8.86812Z" fill="#112F91"/>
<path d="M8.86816 29.8162C8.5375 29.8155 8.26889 30.083 8.26819 30.4136C8.26749 30.7443 8.53498 31.0129 8.86563 31.0136H36.5011C36.8318 31.0136 37.0999 30.7455 37.0999 30.4149C37.0999 30.0842 36.8318 29.8162 36.5011 29.8162L8.86816 29.8162Z" fill="#112F91"/>
<path d="M61.4462 35.6893H0V21.5483H61.4462V35.6893ZM1.01007 34.6792H60.4361V22.5584H1.01007V34.6792Z" fill="#E5E5E5"/>
<path d="M61.4462 57.2375H0V43.0965H61.4462V57.2375Z" fill="white"/>
<path d="M8.86812 47.7722C8.53746 47.7722 8.26941 48.0403 8.26941 48.3709C8.26941 48.7016 8.53746 48.9696 8.86812 48.9696H52.5807C52.9113 48.9696 53.1794 48.7016 53.1794 48.3709C53.1794 48.0403 52.9113 47.7722 52.5807 47.7722H8.86812Z" fill="#E6E6E6"/>
<path d="M8.86804 51.3644C8.53738 51.3637 8.26877 51.6312 8.26807 51.9619C8.26737 52.2925 8.53486 52.5612 8.86551 52.5619H36.501C36.8317 52.5619 37.0997 52.2938 37.0997 51.9631C37.0997 51.6325 36.8317 51.3644 36.501 51.3644H8.86804Z" fill="#E6E6E6"/>
<path d="M61.4462 57.2375H0V43.0965H61.4462V57.2375ZM1.01007 56.2275H60.4361V44.1066H1.01007V56.2275Z" fill="#E5E5E5"/>
<path d="M61.9512 14.141H0.505005V0H61.9512V14.141Z" fill="white"/>
<path d="M9.37313 4.67566C9.04247 4.67626 8.77491 4.9448 8.77551 5.27545C8.77611 5.60526 9.04332 5.87247 9.37313 5.87307H53.0857C53.4163 5.87247 53.6839 5.60393 53.6833 5.27327C53.6827 4.94347 53.4155 4.67626 53.0857 4.67566H9.37313Z" fill="#112F91"/>
<path d="M9.37316 8.26795C9.04251 8.26725 8.77389 8.53474 8.77319 8.86539C8.7725 9.19604 9.03998 9.46466 9.37064 9.46536H37.0062C37.3368 9.46596 37.6053 9.1984 37.606 8.86774C37.6066 8.53709 37.339 8.26855 37.0083 8.26795C37.0076 8.26794 37.0091 8.26794 37.0083 8.26795L9.37316 8.26795Z" fill="#112F91"/>
<path d="M61.9512 14.141H0.505005V0H61.9512V14.141ZM1.51508 13.131H60.9411V1.01007H1.51508V13.131Z" fill="#E5E5E5"/>
<path d="M124.449 100.579V88.4012C124.449 88.4012 129.195 97.035 124.449 100.579Z" fill="#F1F1F1"/>
<path d="M124.743 100.577L115.771 92.3416C115.771 92.3416 125.341 94.6842 124.743 100.577Z" fill="#F1F1F1"/>
<path d="M81.5322 61.7458C83.2926 61.7458 84.7197 60.3187 84.7197 58.5583C84.7197 56.7979 83.2926 55.3708 81.5322 55.3708C79.7718 55.3708 78.3447 56.7979 78.3447 58.5583C78.3447 60.3187 79.7718 61.7458 81.5322 61.7458Z" fill="#2D6CDF"/>
<path d="M81.2162 59.7742C81.1445 59.7743 81.0747 59.7511 81.0173 59.7081L81.0137 59.7054L80.2646 59.1324C80.1187 59.0205 80.0911 58.8116 80.203 58.6657C80.3149 58.5198 80.5238 58.4922 80.6697 58.604L81.1549 58.9761L82.3015 57.4803C82.4133 57.3344 82.6222 57.3069 82.768 57.4187C82.9137 57.5306 82.9415 57.7395 82.8299 57.8854L81.4812 59.644C81.418 59.7261 81.3198 59.7745 81.2162 59.7742Z" fill="white"/>
<path d="M94.5407 32.6512C97.0606 32.6512 99.1034 30.6084 99.1034 28.0885C99.1034 25.5686 97.0606 23.5258 94.5407 23.5258C92.0208 23.5258 89.978 25.5686 89.978 28.0885C89.978 30.6084 92.0208 32.6512 94.5407 32.6512Z" fill="#FFB6B6"/>
<path d="M98.5264 31.5942C98.5264 31.5942 99.8777 28.8573 99.8537 27.8124C99.8296 26.7676 99.0913 24.0788 98.7797 23.9015C98.4681 23.7242 95.1081 22.0182 94.1975 22.5311C93.2869 23.0441 91.6845 24.7985 89.9561 25.2731C89.4672 25.4073 89.894 27.9188 89.894 27.9188L91.9166 27.6262C91.9166 27.6262 94.0253 25.7328 94.1165 27.0221C94.2077 28.3114 96.1631 27.7744 96.1631 27.7744L96.1872 28.8193L96.9876 28.8623L97.208 27.7504C97.208 27.7504 97.5677 30.0174 97.1029 31.1965C96.6381 32.3756 98.5264 31.5942 98.5264 31.5942Z" fill="#2F2E41"/>
</svg>
