<svg width="120" height="120" viewBox="0 0 120 120" fill="none" xmlns="http://www.w3.org/2000/svg">
<g clip-path="url(#clip0_102_1665)">
<mask id="mask0_102_1665" style="mask-type:luminance" maskUnits="userSpaceOnUse" x="0" y="0" width="120" height="120">
<path d="M120 0H0V120H120V0Z" fill="white"/>
</mask>
<g mask="url(#mask0_102_1665)">
<path d="M33.0168 45.7197C31.2168 41.8341 29.8788 37.7481 28.7496 33.6213C25.6668 22.3521 32.502 9.00939 44.2884 6.53859C48.2928 5.69859 52.4652 5.90019 56.454 6.72459C63.0432 8.08418 68.898 12.7629 72.204 18.6201C73.8708 21.5721 74.9244 24.8973 75.0408 28.2969C75.1812 32.3841 73.2288 35.8509 72.6108 39.8097L72.5892 39.9417" stroke="#CCDDE2" stroke-width="0.2892" stroke-miterlimit="10"/>
<path d="M72.8736 113.981C72.4992 114.042 73.2468 113.93 72.8736 113.981ZM72.8736 113.981C84.84 114 94.0092 104.773 92.52 91.5035C91.1148 79.0067 83.9448 70.6151 75.75 62.1887C72.1392 58.4759 69.4284 49.4099 71.9184 46.1255" stroke="#CCDDE2" stroke-width="0.2892" stroke-miterlimit="10"/>
<path d="M27.078 66.0588C27.078 66.3132 27.0864 66.5676 27.0936 66.8172C27.24 71.28 28.2996 74.214 28.9392 75.6C28.7298 75.0084 28.6576 74.3768 28.728 73.7532C28.773 73.3301 28.8398 72.9095 28.9284 72.4932C29.4312 70.1571 30.5718 68.0063 32.2236 66.2796L32.2392 66.2652C32.4588 66.0372 32.628 65.8836 32.7192 65.802L32.76 65.76L32.802 65.7264L51.4128 48.0204C51.529 47.2583 51.6026 46.4903 51.6336 45.72C52.5696 45.8628 53.5944 45.9708 54.7164 46.044C55.5984 46.098 56.5476 46.1292 57.5568 46.1328C66.834 46.164 70.8192 47.5968 72.3648 48.4416C72.4534 48.4903 72.5531 48.5153 72.6541 48.5137C72.7552 48.5123 72.8542 48.4844 72.9413 48.4332C73.0283 48.3818 73.1005 48.3086 73.1507 48.2209C73.201 48.1332 73.2274 48.0338 73.2276 47.9328V40.2396C72.1476 39.6576 70.8156 39.2532 69.1656 39.1104C64.71 38.7252 59.8152 38.7504 55.638 36.96C52.518 35.622 49.7016 32.9508 46.518 31.602C44.958 30.9432 43.326 30.6036 41.5224 30.882C39.5028 31.1976 37.8024 32.1 36.3624 33.3372C36.3432 33.3516 36.3276 33.372 36.3084 33.3864C34.6632 34.8168 33.3636 36.678 32.358 38.5824C29.1864 44.5752 27.2976 52.272 27.132 59.1324V59.2092C27.132 59.5176 27.1248 59.8224 27.1248 60.1272L27.078 66.0588Z" fill="#112F91"/>
<path d="M38.5536 17.5765V19.3921H51.7884V17.5765C51.7888 17.4338 51.7812 17.2912 51.7656 17.1493C51.6596 16.1052 51.1694 15.1378 50.3901 14.4348C49.611 13.7318 48.5983 13.3435 47.5488 13.3453H42.7848C42.2291 13.345 41.6787 13.4543 41.1651 13.6668C40.6517 13.8793 40.1851 14.191 39.7922 14.584C39.3992 14.9768 39.0876 15.4434 38.8751 15.9569C38.6626 16.4705 38.5532 17.0208 38.5536 17.5765Z" fill="#2D6CDF"/>
<path d="M56.7527 73.1999L58.5863 77.8211H70.1063C70.2674 77.8209 70.427 77.7891 70.576 77.7273C70.7248 77.6657 70.86 77.5751 70.9739 77.4611C71.2032 77.229 71.3326 76.9161 71.3339 76.5899C71.3332 76.3079 71.2355 76.0346 71.0572 75.8161C70.8788 75.5976 70.6308 75.4471 70.3547 75.3899L65.1239 74.3183L64.4303 71.6663L56.7527 73.1999Z" fill="#101010"/>
<path d="M73.2192 111.142L69.4992 106.102V102.671H63.3444C63.3167 102.671 63.2896 102.679 63.2659 102.694C63.2423 102.708 63.223 102.729 63.2099 102.753C63.1968 102.778 63.1904 102.805 63.1915 102.833C63.1926 102.861 63.201 102.887 63.216 102.911L70.32 113.21C70.4837 113.448 70.7026 113.642 70.9578 113.775C71.213 113.91 71.497 113.979 71.7852 113.98C72.1148 113.98 72.438 113.888 72.7188 113.716C72.9996 113.543 73.2269 113.296 73.3756 113.002C73.5242 112.708 73.5883 112.378 73.5607 112.05C73.5331 111.721 73.4149 111.407 73.2192 111.142Z" fill="#060606"/>
<path d="M39.5328 22.0164C39.8843 23.1566 40.0634 24.3429 40.0644 25.536C42.666 25.536 43.1556 24.2676 42.9552 23.2656C42.732 22.152 43.0668 20.598 44.6196 20.3748C46.1724 20.1516 45.7344 22.5984 45.5496 25.4856C45.5544 26.1066 45.6569 26.7229 45.8532 27.312C46.145 28.2008 46.7566 28.9496 47.5692 29.4132C48.3443 29.8424 49.2191 30.059 50.1048 30.0408C50.1048 30.0408 51.6228 26.2644 50.5632 25.9524C49.5036 25.6404 47.0676 22.9308 47.622 19.5924C47.634 19.5192 47.646 19.4544 47.6616 19.3884H39.1476C39.1284 20.2797 39.2586 21.1681 39.5328 22.0164Z" fill="#524316"/>
<path d="M27.1404 59.1361V59.2129C27.1404 59.5213 27.1332 59.8261 27.1332 60.1309L27.0912 66.0733C27.0912 66.3241 27.0984 66.5713 27.1056 66.8173" stroke="black" stroke-width="0.2892" stroke-miterlimit="10"/>
<path d="M28.9403 72.4871C29.9909 74.1252 31.4368 75.4728 33.1449 76.4056C34.8528 77.3383 36.7681 77.8264 38.7143 77.8247H60.0743C62.0591 77.8247 63.0455 78.8111 63.0455 80.0255V111.72C63.0455 112.32 63.2838 112.895 63.708 113.319C64.1322 113.744 64.7076 113.982 65.3075 113.982H73.1183" stroke="black" stroke-width="0.2892" stroke-miterlimit="10"/>
<path d="M73.2192 111.142L69.4992 106.102V102.671H63.3444C63.3167 102.671 63.2896 102.679 63.2659 102.694C63.2423 102.708 63.223 102.729 63.2099 102.753C63.1968 102.778 63.1904 102.805 63.1915 102.833C63.1926 102.861 63.201 102.887 63.216 102.911L70.32 113.21C70.4837 113.448 70.7026 113.642 70.9578 113.775C71.213 113.91 71.497 113.979 71.7852 113.98C72.1148 113.98 72.438 113.888 72.7188 113.716C72.9996 113.543 73.2269 113.296 73.3756 113.002C73.5242 112.708 73.5883 112.378 73.5607 112.05C73.5331 111.721 73.4149 111.407 73.2192 111.142Z" stroke="black" stroke-width="0.2892" stroke-miterlimit="10"/>
<path d="M51.5004 65.7285L53.9328 66.0946" stroke="black" stroke-width="0.2892" stroke-miterlimit="10"/>
<path d="M68.3664 68.5922C73.446 70.5626 76.4064 75.3998 75.7968 80.6222L73.242 102.671H63.042" stroke="black" stroke-width="0.2892" stroke-miterlimit="10"/>
<path d="M51.2711 59.3905L52.7471 63.1105L53.9303 66.0973L56.7527 73.2001L58.5863 77.8213H70.1063C70.2675 77.8212 70.4271 77.7894 70.576 77.7276C70.7248 77.6659 70.86 77.5753 70.9739 77.4613C71.2034 77.2292 71.3326 76.9164 71.3339 76.5901C71.3332 76.3081 71.2355 76.0349 71.0572 75.8164C70.8789 75.5978 70.6308 75.4474 70.3547 75.3901L65.1239 74.3185L64.4303 71.6665L69.1823 70.8145L68.3699 68.5909L61.4819 49.7509C60.0419 45.7909 54.6599 44.9401 51.6083 47.8465L51.4307 48.0157L32.1467 66.3601" stroke="black" stroke-width="0.2892" stroke-miterlimit="10"/>
<path d="M39.7632 77.825C41.5671 77.8251 43.3337 77.3102 44.8549 76.3406C46.3761 75.371 47.5889 73.9872 48.3504 72.3518L51.4992 65.7314L52.7472 63.1106" stroke="black" stroke-width="0.2892" stroke-miterlimit="10"/>
<path d="M42.2604 41.1948C42.2604 41.1948 43.7292 44.5332 51.6456 45.7236C52.5816 45.8667 53.6092 45.9747 54.7284 46.0476C55.6084 46.1012 56.5552 46.1307 57.5688 46.1364C66.846 46.1676 70.8312 47.6004 72.3768 48.4452C72.4654 48.4939 72.5652 48.5187 72.6663 48.5172C72.7674 48.5156 72.8664 48.4879 72.9535 48.4365C73.0407 48.3853 73.113 48.3122 73.1633 48.2245C73.2137 48.1368 73.2405 48.0375 73.2408 47.9364V44.5404C73.9452 45.0108 74.4624 45.708 74.8356 46.4988C75.3024 47.4588 75.5556 48.5676 75.6912 49.5816C75.8019 50.3823 75.8548 51.1901 75.8496 51.9984C75.8495 52.1977 75.9285 52.3889 76.0692 52.53C76.1382 52.601 76.2209 52.6574 76.3122 52.6957C76.4037 52.7341 76.5017 52.7537 76.6008 52.7532C76.779 52.7537 76.9517 52.6908 77.0879 52.5759C77.2242 52.461 77.3152 52.3014 77.3448 52.1256C77.7048 50.0016 78.4164 43.0452 73.2408 40.2396C72.1608 39.6576 70.8276 39.2532 69.1776 39.1104C64.7232 38.7252 59.8284 38.7504 55.65 36.96C52.524 35.622 49.7112 32.9472 46.53 31.602C44.976 30.9432 43.338 30.6036 41.5344 30.882C39.5148 31.1976 37.8144 32.1 36.3744 33.3372C34.7016 34.7772 33.3864 36.6588 32.3688 38.5824C29.1972 44.5752 27.3084 52.272 27.1428 59.1324V59.2092C27.1428 59.5176 27.1356 59.8224 27.1356 60.1272" stroke="black" stroke-width="0.2892" stroke-miterlimit="10"/>
<path d="M45.8663 27.336L45.8555 27.312C45.6335 26.8704 45.4955 26.2788 45.5507 25.4868C45.7331 22.5972 46.1783 20.1516 44.6219 20.3748C43.0655 20.598 42.7331 22.1532 42.9599 23.2644C43.1603 24.2676 42.6731 25.5444 40.0703 25.5372" stroke="black" stroke-width="0.2892" stroke-miterlimit="10"/>
<path d="M50.5631 25.9526C50.7683 25.2014 52.5479 25.307 51.7499 23.6798C51.2951 22.751 51.2699 21.1682 51.5555 19.3922" stroke="black" stroke-width="0.2892" stroke-miterlimit="10"/>
<path d="M39.1476 19.3922C39.13 20.2821 39.2599 21.1689 39.5316 22.0166C39.885 23.1567 40.065 24.3437 40.0656 25.5374L40.0223 27.6386C40.0084 28.6127 39.759 29.5688 39.2953 30.4256C38.8315 31.2823 38.1674 32.0142 37.3595 32.5586C36.9851 32.8005 36.6355 33.0787 36.3156 33.389" stroke="black" stroke-width="0.2892" stroke-miterlimit="10"/>
<path d="M45.5508 25.4868C45.5549 26.1075 45.6577 26.7236 45.8556 27.312C46.8744 30.2256 50.1036 30.0396 50.1036 30.0396C50.1036 30.0396 51.624 26.2644 50.5632 25.9524C49.5024 25.6404 47.0676 22.9308 47.6232 19.5924C47.634 19.5216 47.6484 19.4532 47.6628 19.3884" stroke="black" stroke-width="0.2892" stroke-miterlimit="10"/>
<path d="M51.7991 17.1478H51.8207" stroke="black" stroke-width="0.2892" stroke-miterlimit="10"/>
<path d="M56.7527 73.2036L64.4255 71.67" stroke="black" stroke-width="0.2892" stroke-miterlimit="10"/>
<path d="M73.2407 44.5401V40.2393" stroke="black" stroke-width="0.2892" stroke-miterlimit="10"/>
<path d="M74.8379 46.4963C74.1587 47.6723 74.3171 50.0507 75.0527 50.0039C75.3071 49.9847 75.5195 49.8107 75.6936 49.5803" stroke="black" stroke-width="0.2892" stroke-miterlimit="10"/>
<path d="M51.8207 19.3919V17.5775C51.8207 17.0213 51.7112 16.4705 51.4982 15.9565C51.2852 15.4427 50.9729 14.9757 50.5794 14.5826C50.186 14.1894 49.7188 13.8776 49.2047 13.6651C48.6906 13.4526 48.1398 13.3434 47.5835 13.3439H42.8195C42.2633 13.3434 41.7125 13.4526 41.1987 13.6652C40.6847 13.8777 40.2178 14.1895 39.8244 14.5827C39.4311 14.976 39.1192 15.4429 38.9064 15.9567C38.6937 16.4706 38.5844 17.0214 38.5847 17.5775V19.3919H56.5535" stroke="black" stroke-width="0.2892" stroke-miterlimit="10"/>
<path d="M48.2627 19.392C48.3467 14.4636 45.5399 13.4568 45.2039 13.3536C45.1826 13.3463 45.1593 13.3463 45.1379 13.3536C44.8019 13.4568 41.9951 14.4636 42.0791 19.392" stroke="black" stroke-width="0.2892" stroke-miterlimit="10"/>
<path d="M46.1195 13.32C46.1107 13.0742 46.0069 12.8414 45.83 12.6707C45.653 12.4999 45.4168 12.4045 45.1709 12.4045C44.925 12.4045 44.6887 12.4999 44.5117 12.6707C44.3349 12.8414 44.2311 13.0742 44.2223 13.32H46.1195Z" fill="black"/>
<path d="M47.5692 29.4108L46.5323 31.6008" stroke="black" stroke-width="0.2892" stroke-miterlimit="10"/>
<path d="M51.2256 21.2399C51.2256 21.2399 49.6068 20.9483 48.99 22.1999" stroke="black" stroke-width="0.2856" stroke-miterlimit="10"/>
<path d="M50.4405 22.9652C50.6667 22.8077 50.7414 22.5239 50.6073 22.3314C50.4732 22.1388 50.181 22.1105 49.9548 22.2681C49.7286 22.4257 49.654 22.7095 49.788 22.902C49.9222 23.0945 50.2143 23.1228 50.4405 22.9652Z" fill="black"/>
<path d="M49.1279 26.2237C49.1279 26.2237 49.7435 27.0913 50.9999 26.7817" stroke="black" stroke-width="0.2856" stroke-miterlimit="10"/>
<path d="M32.8104 65.7285C32.8104 65.7285 29.28 68.5917 28.7388 73.7493C28.5156 75.8769 29.8548 77.8233 31.9944 77.8233H39.0132" stroke="black" stroke-width="0.2892" stroke-miterlimit="10"/>
<path d="M29.4348 76.5178C29.4348 76.5178 26.982 72.7486 27.0924 65.2377" stroke="black" stroke-width="0.2892" stroke-miterlimit="10"/>
<path d="M51.4259 48.0204C51.5417 47.2583 51.615 46.4903 51.6455 45.72" stroke="black" stroke-width="0.2892" stroke-miterlimit="10"/>
<path d="M29.2427 72.9325C29.2427 72.9325 29.1047 72.6745 28.9403 73.0357C28.7759 73.3969 28.1075 76.3801 30.1643 77.2489C32.2211 78.1177 36.5399 77.6221 36.5399 77.6221C36.5399 77.6221 31.4399 76.5397 29.2427 72.9325Z" fill="black"/>
</g>
</g>
<defs>
<clipPath id="clip0_102_1665">
<rect width="120" height="120" fill="white"/>
</clipPath>
</defs>
</svg>
