<svg width="56" height="55" viewBox="0 0 56 55" fill="none" xmlns="http://www.w3.org/2000/svg">
<path d="M39.6231 32.6218C38.97 32.3124 35.8419 30.7656 35.2575 30.5249C34.6731 30.2843 34.2606 30.2156 33.8137 30.8687C33.3669 31.5218 32.1637 32.9312 31.7856 33.3781C31.4075 33.8249 31.0637 33.8593 30.4106 33.3781C28.5347 32.6252 26.8022 31.5555 25.2887 30.2156C23.9187 28.9257 22.7589 27.4295 21.8512 25.7812C21.4731 25.1624 21.8512 24.8187 22.1262 24.4749C22.4012 24.1312 22.745 23.7531 23.0887 23.3749C23.3401 23.0479 23.5481 22.6897 23.7075 22.3093C23.7928 22.1324 23.8371 21.9385 23.8371 21.7421C23.8371 21.5457 23.7928 21.3519 23.7075 21.1749C23.7075 20.8656 22.2637 17.7374 21.7137 16.4656C21.1637 15.1937 20.6825 15.3656 20.3044 15.3656H18.9294C18.2744 15.3911 17.6562 15.6754 17.2106 16.1562C16.4913 16.8426 15.9216 17.6701 15.5371 18.587C15.1526 19.5038 14.9617 20.4902 14.9762 21.4843C15.1521 23.9249 16.0494 26.2581 17.5544 28.1874C20.3159 32.2899 24.0941 35.6061 28.52 37.8124C30.0325 38.4656 31.2012 38.8437 32.1294 39.1531C33.4327 39.547 34.8103 39.6294 36.1512 39.3937C37.0419 39.213 37.8859 38.8513 38.6309 38.3309C39.376 37.8106 40.0062 37.1427 40.4825 36.3687C40.8789 35.4129 41.0095 34.3677 40.8606 33.3437C40.6887 33.1031 40.2762 32.9312 39.6231 32.6218Z" fill="black"/>
<path d="M46.0512 9.21264C43.6739 6.81287 40.8401 4.91345 37.717 3.62641C34.5938 2.33937 31.2446 1.69078 27.8668 1.71889C23.3922 1.74231 19.002 2.93932 15.1348 5.19036C11.2675 7.44141 8.05857 10.6677 5.8284 14.547C3.59823 18.4263 2.42491 22.8229 2.42561 27.2976C2.42631 31.7722 3.60101 36.1684 5.8324 40.047L2.3949 53.2814L15.9386 49.8439C19.6829 51.8813 23.8791 52.9451 28.1418 52.9376H27.8668C32.9471 52.9707 37.9222 51.49 42.1576 48.6842C46.393 45.8785 49.6968 41.8749 51.6477 37.1839C53.5986 32.4929 54.1081 27.3272 53.1114 22.3455C52.1146 17.3638 49.6567 12.7918 46.0512 9.21264ZM27.8668 48.5376C24.053 48.5407 20.3102 47.5069 17.0386 45.547L16.2824 45.1001L8.23865 47.197L10.3699 39.3595L9.88865 38.5689C7.14331 34.1477 6.11637 28.8726 7.00269 23.7444C7.889 18.6162 10.6269 13.9918 14.6969 10.7485C18.7669 7.50518 23.8859 5.86871 29.0825 6.14955C34.2791 6.43039 39.1919 8.609 42.8886 12.272C44.8705 14.2379 46.4413 16.5785 47.5095 19.1576C48.5777 21.7366 49.1219 24.5024 49.1105 27.2939C49.1014 32.9253 46.8603 38.3234 42.8783 42.3055C38.8963 46.2875 33.4982 48.5286 27.8668 48.5376Z" fill="black"/>
</svg>
